<svg xmlns="http://www.w3.org/2000/svg" width="1080" viewBox="0 0 810 810" height="1080" version="1.0"><defs><clipPath id="c6ff934b5d"><path d="M0 260.09h809v366.75H0Zm0 0"/></clipPath></defs><g clip-path="url('#c6ff934b5d')"><path fill="#235f83" d="M24.707 435.523c-1.844-2.82-3.824-5.343-5.18-8.191-1.843-3.824-3.011-8.004-2.414-12.262.707-5.07 2.414-9.925 4.692-14.535 2.902-5.941 7.082-10.879 11.855-15.351 1.625-1.52 1.57-1.575-.543-2.77-7.922-4.394-16.41-7.43-24.953-10.277-1.871-.625-3.906-.844-5.832-1.305-.516-.133-1.14-.406-1.355-.785-.38-.68-.762-1.602-.598-2.277.082-.434 1.14-.84 1.789-.922 3.96-.434 7.648.812 11.34 1.953 7.863 2.441 15.215 6.101 22.566 9.816.567.274 1.137.598 1.598 1.031.95.922 1.547.461 2.414-.191a705.375 705.375 0 0 1 12.422-9.137c.898-.625 1.031-.953.543-2.172-2.196-5.48-1.98-13.234 3.148-18.253 4.61-4.528 10.063-7.594 15.785-10.2 6.809-3.117 13.832-5.75 21.13-7.675 4.472-1.192 8.866-2.793 13.398-3.957 4.855-1.25 9.683-2.715 14.539-4.016 5.125-1.383 10.277-2.66 15.379-4.07 5.449-1.489 10.875-3.09 16.328-4.61 5.722-1.574 11.472-3.039 17.168-4.664 4.828-1.355 9.601-2.957 14.43-4.258 4.445-1.195 8.949-2.172 13.425-3.23 2.36-.567 4.719-1.164 7.106-1.68 1.437-.3 2.902-.082 4.394-.515 2.196-.625 4.637-.38 6.969-.707 5.777-.813 11.61-.622 17.414-.516 3.906.082 7.813.437 11.691 1.031 2.547.379 5.07.817 7.622 1.195 4.855.704 9.437 2.332 14.074 3.743 1.547.46 3.012 1.086 4.531 1.629 1.438.488 2.738 1.464 4.367 1.19 1.625-.241 3.309-.378 4.856-.839 5.91-1.762 11.77-3.77 17.71-5.453 3.743-1.059 7.594-1.707 11.391-2.547 4.34-.95 8.68-1.926 13.02-2.824 3.199-.649 6.457-1.137 9.656-1.844 4.856-1.082 9.684-2.195 14.484-3.469 6.047-1.629 12.07-3.472 18.118-5.183 6.21-1.762 12.421-3.606 18.687-5.18 3.363-.84 6.863-1.164 10.254-1.789 9.492-1.766 18.957-3.637 28.07-6.945 3.282-1.192 6.457-2.602 9.793-3.578 3.715-1.114 7.512-1.872 11.309-2.766 3.336-.79 6.672-1.656 10.035-2.281 2.984-.543 6.078-.621 9.059-1.246 3.691-.79 7.515-.598 11.148-1.684.191-.055.379 0 .57 0 9.168-.785 18.364-.812 27.532-.46 4.093.163 8.136 1.655 12.175 2.632 7.95 1.926 15.461 4.988 22.84 8.406 5.422 2.496 10.848 5.074 16.055 8.004 6.457 3.606 12.777 7.457 18.988 11.445 6.13 3.934 12.094 8.11 18.09 12.23 5.125 3.528 10.227 7.028 15.27 10.661 7.16 5.125 14.242 10.336 21.347 15.543 4.446 3.254 8.922 6.48 13.29 9.844 4.042 3.12 7.921 6.43 11.96 9.574 3.852 3.012 7.813 5.832 11.664 8.816 3.012 2.332 5.938 4.774 8.922 7.133 3.637 2.875 7.27 5.723 10.903 8.598 2.199 1.738 4.289 3.582 6.484 5.316 3.418 2.684 6.89 5.29 10.281 8 3.2 2.551 6.317 5.235 9.52 7.758 5.07 3.988 10.36 7.758 15.297 11.934 5.425 4.558 11.253 8.52 17.113 12.476 1.328.895 2.578 1.195 4.125 1.305 4.39.27 8.785.488 13.097 1.191 3.122.516 6.079 1.817 8.301 4.395 2.008 2.305 2.168 3.687.028 5.941-1.032 1.082-.95 1.383.351 2.086 2.387 1.277 4.668 2.77 6.918 4.285 2.875 1.926 5.778 3.825 8.543 5.942 2.035 1.547 3.824 3.363 5.723 5.097.297.274.68.489.785.817 1.168 3.441 3.934 2.52 6.133 1.898 3.418-.922 6.699-.597 9.898.297 3.2.895 3.824 4.692 1.246 6.484-1.57 1.11-3.468 2.086-5.34 2.415-2.308.406-4.75.105-7.136.05-.621-.027-1.219-.297-1.844-.433-.895-.188-2.223-.078-2.574-.621-1.871-2.848-4.559-1.739-6.973-1.657-4.937.137-9.898.082-14.781.68-2.633.324-5.262.297-7.867.488-4.368.325-8.758.676-13.125 1.164-4.504.489-8.98 1.086-13.453 1.739-5.102.73-10.2 1.41-15.243 2.332-3.609.675-7.215 1.246-10.851 1.761-5.125.707-10.2 1.926-15.297 2.82-2.902.516-5.86.708-8.762 1.196-2.875.488-5.695 1.219-8.543 1.68-3.011.488-6.047.707-9.058 1.195-2.688.434-5.317 1.246-8 1.598-2.282.3-4.504.789-6.727 1.195-4.285.73-8.465 1.953-12.695 2.902-5.371 1.192-10.606 2.903-15.407 5.45-6.32 3.34-12.449 7.082-18.062 11.582-3.988 3.203-7.922 6.457-11.934 9.601-6.754 5.29-13.347 10.797-21.265 14.324-3.281 1.461-6.645 2.711-10.36 1.625-.136-.027-.273-.082-.41-.109-.027.273-.16.625-.05.762a1185.45 1185.45 0 0 0 6.722 9.086c1.953 2.574 3.906 5.152 5.942 7.675 1.355 1.68 2.93 3.2 4.257 4.91 1.766 2.223 3.391 4.583 5.157 6.833 1.597 2.062 3.28 4.043 4.906 6.078.57.703 1.222 1.41 1.629 2.222.625 1.247.187 2.414-.95 3.149-1.3.84-1.925-.246-2.578-.95a103.002 103.002 0 0 1-3.496-4.042c-1.52-1.871-3.039-3.742-4.504-5.668a105.739 105.739 0 0 0-5.668-6.946c-3.093-3.445-5.644-7.347-8.707-10.82-2.496-2.848-4.53-6.023-6.726-9.086-.785-1.086-1.602-1.058-2.442.082-3.472 4.719-6.972 9.438-10.386 14.211-2.606 3.633-4.801 7.567-7.676 10.957-1.684 2.008-3.774 4.313-7.027 3.77-1.032-.16-2.196-.516-2.957-1.192-2.086-1.843-3.903-3.879-5.016-6.566-1.274-3.035-3.121-5.856-4.531-8.84-.649-1.41-1.543-1.926-3.035-1.898-4.313.027-8.575.379-12.832 1.136-4.067.735-8.22 1.004-12.286 1.82-4.855.977-9.601 2.575-14.511 3.364-7.079 1.137-13.996 3.008-20.91 4.8-7.868 2.032-15.598 4.665-23.329 7.216a715.483 715.483 0 0 0-20.746 7.187c-7.625 2.766-15.191 5.723-22.812 8.543-4.938 1.816-9.926 3.523-14.864 5.344-4.53 1.652-9.003 3.363-13.507 5.097-5.586 2.145-11.176 4.258-16.707 6.485-3.88 1.57-7.676 3.336-11.555 4.96-5.504 2.278-11.066 4.477-16.57 6.782-3.446 1.437-6.891 2.902-10.282 4.504-7.27 3.418-14.539 6.832-21.726 10.414-3.145 1.574-5.992 3.687-9.086 5.289-5.613 2.93-11.149 6.047-17.465 7.484-2.441.543-4.828 1.086-7.352 1.114-3.66.054-6.753-1.274-9.601-3.391-7.215-5.371-13.969-11.227-20.125-17.793-3.2-3.418-6.402-6.809-9.602-10.2-2.793-2.98-5.75-5.855-8.355-9.003-6.86-8.246-14.945-15.324-22.05-23.297-9.63-10.824-19.99-20.887-30.188-31.137-4.149-4.152-8.625-7.976-12.993-11.91-3.363-3.035-6.726-6.047-10.171-9.004-6.047-5.234-11.88-10.687-18.524-15.242-6.973-4.8-13.941-9.656-20.937-14.457-6.567-4.504-12.805-9.52-19.395-14.05-8.516-5.856-16.492-12.423-25.25-17.926-5.86-3.797-10.852-8.68-15.707-13.915m498.496 99.106c-1.71.273-1.793.351-1.113 1.766 1.219 2.574 2.387 5.207 3.77 7.699.706 1.277 1.765 2.386 2.792 3.472 1.36 1.41 2.282 1.465 3.528.055 1.656-1.871 3.172-3.851 4.61-5.887 2.874-4.093 5.616-8.297 8.519-12.367 1.87-2.629 3.957-5.097 5.882-7.703.68-.894 1.793-1.844.95-3.144-.758-1.168-1.707-2.227-2.63-3.254-2.632-2.875-5.316-5.727-7.972-8.575-.191-.214-.437-.406-.598-.62-2.66-3.231-5.129-6.673-8.03-9.684-4.528-4.664-9.329-9.059-14.048-13.563-4.422-4.23-8.789-8.515-13.293-12.668-2.465-2.277-5.152-4.336-7.675-6.562-3.903-3.446-7.836-6.836-11.579-10.469-3.906-3.797-7.433-7.973-11.312-11.77-4.477-4.367-9.195-8.492-13.832-12.722-1.246-1.14-2.55-2.223-3.852-3.281-3.906-3.149-7.812-6.266-11.718-9.414-3.118-2.493-6.211-5.016-9.329-7.512-3.687-2.957-7.406-5.887-11.093-8.867-2.47-2.008-4.828-4.153-7.325-6.133-3.308-2.656-6.753-5.153-10.062-7.809-3.2-2.55-6.266-5.289-9.547-7.73-3.715-2.793-7.594-5.371-11.445-8.004-7.215-4.934-14.211-10.223-21.727-14.617-7.918-4.637-15.566-9.739-23.625-14.16-4.8-2.63-9.734-4.961-14.644-7.32-4.664-2.227-9.547-3.962-14.348-5.833-4.559-1.789-9.168-3.473-13.754-5.207-5.34-2.008-10.71-3.933-16-6.078-5.398-2.195-6.781-2.711-12.613-2.547-7.43.188-14.89-.57-22.348.488-3.824.54-7.73 0-11.637.516-3.851.512-7.785.813-11.664 1.191-4.23.407-8.406 1.168-12.586 1.762-5.34.762-10.605 1.82-15.867 2.985-3.363.734-6.699 1.546-10.035 2.304-3.336.762-6.7 1.492-10.035 2.332a774.497 774.497 0 0 0-13.316 3.473c-4.149 1.113-8.301 2.305-12.45 3.473-5.453 1.52-10.93 2.902-16.355 4.53-7.352 2.196-14.594 4.747-21.754 7.567-7.16 2.82-14.238 5.695-21.02 9.301-5.125 2.742-10.332 5.344-15.433 8.137a312.085 312.085 0 0 0-13.29 7.73c-2.737 1.684-2.655 1.899-.784 4.613 3.468 5.07 7.023 10.063 10.765 14.946 4.176 5.449 8.735 10.55 13.426 15.511 7.242 7.622 14.648 15.082 22.785 21.754 1.52 1.246 2.957 2.63 4.473 3.88 3.96 3.226 8.031 6.32 11.91 9.656 4.094 3.496 8.027 7.214 12.016 10.82 1.898 1.71 3.77 3.445 5.695 5.101 3.77 3.227 7.594 6.372 11.336 9.63 2.36 2.058 4.61 4.23 6.945 6.316a115.98 115.98 0 0 0 4.473 3.879c3.094 2.55 6.21 5.046 9.305 7.593 2.523 2.09 4.937 4.313 7.511 6.32 3.906 3.067 7.895 6.051 11.883 9.009 3.902 2.875 7.836 5.722 11.824 8.488 3.66 2.55 7.38 5.015 11.067 7.484 4.449 2.957 8.894 5.942 13.453 8.79 3.035 1.898 6.375 3.39 9.328 5.398 3.527 2.414 7.46 3.933 11.34 5.504 4.285 1.738 8.734 3.175 13.207 4.421 3.824 1.086 7.73 2.145 11.691 2.47 4.938.405 9.899-.028 14.863-.95 6.426-1.195 12.45-3.418 18.418-5.914 4.094-1.734 8.188-3.524 12.204-5.477 7.757-3.773 16.086-6.023 24.328-8.3 7.11-1.954 14.215-3.88 21.293-5.887 4.422-1.246 8.843-2.414 13.261-3.578 4.965-1.332 9.875-2.77 14.864-3.907 4.18-.949 8.437-1.52 12.64-2.359 4.34-.894 8.625-2.09 12.993-2.82 5.019-.844 9.87-2.145 14.648-3.801 4.664-1.598 9.273-3.309 14.101-4.418 4.72-1.086 9.305-2.715 13.97-3.934 3.581-.921 7.241-1.683 10.902-2.332 2.902-.515 5.832-1.03 8.789-1.14 5.125-.164 10.226-.215 15.214 1.629 5.13 1.898 10.118 3.984 14.836 6.832 7.028 4.234 13.59 8.925 19.34 14.785 5.18 5.262 6.512 11.77 6.43 18.742-.027 2.629-2.742 5.18-5.398 5.422-3.254.246-6.563.355-10.442.543m77.57-218.203c-.187 0-.433.082-.57 0-5.152-3.664-10.223-7.406-15.433-10.957-7.649-5.211-15.352-10.39-23.16-15.38-4.696-2.984-9.52-5.831-14.485-8.327-6.457-3.254-13.074-6.157-19.664-9.086a95.789 95.789 0 0 0-9.766-3.688c-3.5-1.113-7.078-2.035-10.687-2.875-2.492-.57-5.07-1.168-7.594-1.168-7.836.028-15.648.325-23.488.516-.188 0-.406-.055-.57 0-3.825 1.113-7.836.867-11.743 1.68-2.984.625-6.05.68-9.058 1.25-4.64.84-9.278 1.707-13.832 2.902a146.207 146.207 0 0 0-17.063 5.613c-4.664 1.871-9.437 3.473-14.484 4.203-2.305.329-4.555 1.114-6.86 1.575-3.203.68-6.43 1.273-9.656 1.843-3.418.625-6.89.977-10.226 1.871-7.188 1.926-14.293 4.153-21.426 6.211-5.426 1.575-10.852 3.23-16.328 4.586-4.746 1.164-9.602 1.98-14.43 2.93-3.04.598-6.105 1.11-9.113 1.762-4.043.894-8.082 1.898-12.125 2.875-3.852.922-7.676 1.953-11.555 2.82-4.394.977-8.488 3.04-12.992 3.555-.215.027-.434.242-.652.379.19.246.328.652.57.73 2.09.817 4.18 1.547 6.265 2.336 4.856 1.816 9.711 3.606 14.512 5.45 4.664 1.792 9.223 3.796 13.914 5.507 7.215 2.629 14.293 5.64 21.02 9.328 7.027 3.852 13.886 7.977 20.722 12.125 5.559 3.363 11.067 6.89 16.493 10.469 7.484 4.91 14.996 9.82 21.941 15.516 4.773 3.906 9.82 7.484 14.7 11.308 2.44 1.899 4.722 3.988 7.109 5.914 3.605 2.903 7.293 5.696 10.902 8.625 3.55 2.875 6.996 5.887 10.55 8.79 4.747 3.85 9.575 7.648 14.348 11.472 1.383 1.113 2.711 2.332 4.067 3.473 3.582 3.007 7.351 5.804 10.687 9.03 6.809 6.536 13.29 13.4 20.098 19.934 3.851 3.692 8.11 6.946 12.125 10.497a606.14 606.14 0 0 1 12.207 11.039c4.527 4.234 9.059 8.52 13.453 12.914 3.66 3.632 7.106 7.457 10.656 11.199.137.137.274.273.41.406 4.231 4.992 8.461 10.012 12.692 15 .164.192.406.324.598.488.082-.27.242-.515.214-.757-.16-1.575-.62-3.149-.515-4.668.164-2.36.87-4.692 1.058-7.051.516-6.238 3.391-11.527 6.512-16.707 2.36-3.934 5.477-7.352 8.758-10.551a281.134 281.134 0 0 1 8.762-8.191c2.441-2.196 4.8-4.532 7.539-6.293 4.367-2.848 8.734-5.723 13.293-8.38 5.832-3.39 11.906-6.238 18.007-8.952 6.43-2.848 13.239-4.829 19.938-7.079 3.309-1.113 6.672-2.171 10.09-2.875 6.808-1.41 13.426-3.687 20.34-4.746 4.476-.68 8.843-2.007 13.293-2.765 4.554-.79 9.191-1.031 13.722-1.875 2.063-.38 4.203-.024 6.102-.594 3.308-1.004 6.672-.57 9.984-.894 7.188-.735 14.48-.543 21.723-.735.191 0 .406.055.57 0 .297-.11.57-.324.84-.488-.215-.215-.406-.461-.676-.652-3.77-2.766-7.62-5.422-11.312-8.27-4.203-3.258-8.219-6.7-12.367-9.98-5.207-4.125-10.524-8.165-15.73-12.29-4.017-3.171-7.95-6.43-11.934-9.601-5.426-4.313-10.907-8.598-16.356-12.91-2.984-2.36-5.914-4.774-8.926-7.133-3.254-2.55-6.59-5.074-9.87-7.594-2.196-1.71-4.34-3.445-6.563-5.129-2.633-2.004-5.344-3.902-7.95-5.91-4.394-3.39-8.68-6.918-13.152-10.2-5.941-4.421-12.098-8.706-18.473-13.37M404.27 534.332c-4.098 1.059-8.247 1.953-12.29 3.227-7.05 2.195-14.238 3.796-21.343 5.777-8.547 2.387-17.035 4.965-25.551 7.512-5.668 1.683-11.285 3.527-16.953 5.183-3.633 1.055-7.297 1.953-10.957 2.903-4.965 1.3-9.926 2.574-14.89 3.851-3.31.84-6.645 1.707-9.954 2.52-3.254.789-6.484 1.629-9.766 2.28-1.191.243-1.328.786-1.68 1.817-1.085 3.2-2.335 6.348-3.96 9.356-3.664 6.781-8.625 12.613-13.672 18.308-2.52 2.848-5.832 5.02-8.625 7.649-2.414 2.25-4.988 2.2-7.676.922-3.797-1.79-7.05-4.45-10.55-6.727-7.919-5.097-15.325-10.875-22.43-17.031-3.825-3.309-7.407-6.89-11.04-10.418-4.8-4.719-9.519-9.547-14.32-14.266-2.304-2.25-4.718-4.394-7.105-6.562-3.852-3.5-7.758-6.946-11.582-10.442-3.23-2.957-6.403-5.996-9.574-9.007-4.23-4.012-8.465-8.028-12.641-12.07-6.7-6.454-13.453-12.856-19.988-19.473-6.239-6.32-12.91-12.153-19.938-17.575-3.906-3.011-7.539-6.32-11.555-9.14-7.945-5.617-16.054-11.012-24.136-16.438-5.645-3.797-11.04-7.922-15.84-12.695-4.64-4.61-8.926-9.574-13.348-14.43-3.281-3.605-5.722-7.699-7.16-12.367-.922-3.008-.027-5.668 2.715-6.398 2.004-.543 4.367-.57 6.344-.028 2.199.594 4.18 2.032 6.187 3.172 4.176 2.332 7.43 5.832 11.067 8.844 3.742 3.09 7.105 6.644 10.656 9.953 1.52 1.41 3.094 2.738 4.668 4.094 4.39 3.824 8.785 7.648 13.18 11.472 1.574 1.36 3.066 2.77 4.69 4.07 3.825 3.095 7.677 6.157 11.528 9.223a750.288 750.288 0 0 0 8.547 6.645c6.156 4.691 12.367 9.305 18.469 14.05 4.176 3.255 8.246 6.645 12.34 10.009 3.527 2.902 7.11 5.777 10.523 8.812 3.555 3.176 6.945 6.54 10.418 9.793.133.137.27.27.406.406 3.5 2.93 7.051 5.832 10.524 8.817 3.418 2.957 6.836 5.937 10.172 9.004 5.75 5.289 11.445 10.605 17.113 15.949 2.305 2.195 4.367 4.664 6.809 6.699 4.394 3.688 8.921 7.215 13.535 10.633 2.468 1.816 5.043 3.578 7.808 4.855 2.743 1.274 5.317 1.055 5.317-3.258 0-3.769-1.543-7.023-3.254-10.222-2.848-5.317-7.649-8.844-12.125-12.531-4.555-3.743-9.68-6.809-14.59-10.09-2.93-1.953-5.969-3.742-8.926-5.668-5.234-3.418-10.55-6.727-15.676-10.336-4.964-3.5-9.601-7.485-14.566-10.957-5.125-3.582-9.734-7.758-14.508-11.719-2.687-2.195-5.262-4.5-7.922-6.754-3.715-3.144-7.648-6.047-11.093-9.465-7.567-7.484-14.891-15.215-22.348-22.836a917.496 917.496 0 0 0-13.508-13.507c-3.687-3.61-7.406-7.188-11.23-10.633-4.04-3.633-8.27-7.078-12.34-10.66-4.176-3.688-8.274-7.485-12.422-11.227-4.203-3.824-8.488-7.57-12.586-11.473-3.39-3.203-7.078-5.968-10.902-8.625-1.25-.87-1.926-.87-2.848.188a376.135 376.135 0 0 1-5.316 5.914c-4.149 4.45-6.946 9.738-8.95 15.406-.953 2.711-1.793 5.64-1.793 8.461 0 2.902.895 5.914 2.332 8.516 2.797 5.129 6.188 9.765 10.934 13.426 4.285 3.308 8.703 6.43 13.125 9.546 4.938 3.5 9.82 7.055 14.703 10.633 4.746 3.5 9.383 7.11 14.156 10.551a418.592 418.592 0 0 0 13.02 9.059c6.535 4.34 13.02 8.789 19.312 13.48 5.235 3.879 10.47 7.73 15.133 12.316 2.848 2.793 5.778 5.504 8.762 8.192 4.828 4.34 9.766 8.598 14.621 12.91 1.082.95 2.059 2.035 3.063 3.063 9.546 9.738 19.12 19.476 28.64 29.238 3.61 3.691 7.11 7.46 10.66 11.203 3.692 3.879 7.352 7.758 11.04 11.637 4.558 4.773 9.14 9.52 13.699 14.293.406.406.84.785 1.218 1.222 2.66 3.035 5.235 6.184 8.028 9.114 2.28 2.386 4.855 4.527 7.297 6.777.136.137.273.3.406.41 3.012 2.25 6.05 4.473 9.062 6.754 2.086 1.598 4.364 2.684 7.024 2.574 2.656-.11 5.152-.894 7.676-1.68 4.093-1.277 8.082-2.875 11.851-4.91 4.668-2.523 9.14-5.398 13.832-7.812a419.552 419.552 0 0 1 29.836-13.86c5.426-2.277 10.797-4.69 16.219-6.918 7-2.875 14.078-5.585 21.101-8.406 6.54-2.605 13.02-5.343 19.614-7.84 8.84-3.363 17.656-6.754 26.605-9.816 9.711-3.309 19.285-7 28.996-10.363a366.705 366.705 0 0 1 25.168-7.758c7.676-2.059 15.38-3.824 23.11-5.64 3.878-.895 7.949-1.274 11.746-2.442 5.992-1.844 12.175-2.277 18.28-3.309 3.036-.515 6.185-.433 9.302-.648.355-.028.707-.164 1.058-.246-.11-.324-.164-.73-.379-.977-1.058-1.113-2.035-2.387-3.28-3.254-7.243-5.097-15.434-7.867-24.142-8.707-4.882-.46-9.87.27-14.808.461-.11 0-.192-.027-.3 0-3.337.57-6.673 1.14-9.981 1.735-3.336.597-6.7 1.003-9.953 1.82a662.227 662.227 0 0 0-21.942 5.723c-6.973 1.98-13.887 4.203-20.805 6.32-.757.242-1.574.406-2.628.867M74.914 441.164c-1.766-1.574-3.555-3.121-5.289-4.746-3.281-3.04-6.484-6.184-9.82-9.195-2.93-2.66-5.832-5.344-8.95-7.73-2.117-1.63-4.23-3.446-6.972-4.095-1.082-.273-2.442-1.492-3.2-.027-.378.703.247 2.113.708 3.063 2.222 4.691 5.476 8.707 8.922 12.503 7.62 8.438 16.082 15.977 25.386 22.512 6.617 4.64 13.48 8.926 20.153 13.508 4.097 2.82 8.027 5.805 11.96 8.871 2.66 2.059 5.153 4.367 7.731 6.508 3.5 2.957 7.187 5.695 10.496 8.844 7.05 6.644 13.914 13.48 20.887 20.234 4.746 4.582 9.52 9.164 14.293 13.695a712.776 712.776 0 0 0 9.383 8.79c4.312 3.984 8.707 7.89 13.02 11.878 3.362 3.094 6.726 6.211 9.98 9.41 6.539 6.43 12.964 12.965 19.476 19.422 1.953 1.926 3.961 3.797 6.102 5.504 4.043 3.23 8.11 6.403 12.312 9.414 5.563 3.989 11.23 7.785 16.871 11.664 1.305.895 2.606.621 3.719-.3 1.816-1.52 3.55-3.09 5.29-4.692 4.257-3.96 7.62-8.68 11.116-13.289 2.93-3.879 5.211-8.004 7.082-12.426.543-1.246.27-1.789-1.058-1.625-1.63.215-2.848-.68-4.125-1.25-1.543-.703-2.575-3.28-2.086-4.851.922-3.04 2.738-5.508 5.86-6.375 1.437-.406 2.901-1.547 4.69-.516 2.008 1.168 3.337 2.551 3.337 4.965 0 1.543.597 1.953 2.035 1.57 5.91-1.543 11.824-3.117 17.765-4.609 7.188-1.79 14.43-3.336 21.563-5.262 6.21-1.683 12.285-3.851 18.441-5.722 5.832-1.79 11.692-3.473 17.524-5.235 3.171-.949 6.32-2.008 9.52-2.875 5.558-1.492 11.175-2.847 16.734-4.34 5.804-1.574 11.582-3.28 17.359-4.937a2125.04 2125.04 0 0 0 17.574-5.098c2.66-.789 5.29-1.71 7.977-2.414 4.96-1.305 9.953-2.523 14.968-3.719 3.961-.949 7.922-1.843 11.91-2.656 2.415-.488 4.934-.597 7.32-1.219 3.962-1.058 8.032-1.304 12.044-1.574 6.539-.406 13.101-.3 19.558 1.547 5.317 1.516 10.278 3.66 14.97 6.508 3.417 2.09 6.32 4.746 8.41 8.246.269.46 1.058.894 1.6.894 4.446-.109 8.923-.324 13.372-.57.434-.027.84-.625 1.219-1.004 1.3-1.273-.028-2.574 0-3.851.082-6.293-3.446-10.82-7.785-14.672-2.93-2.578-6.48-4.422-9.575-6.836-5.097-4.016-10.71-6.942-16.761-9.168-3.118-1.137-6.293-2.441-9.63-2.55-3.468-.106-7.023.054-10.468.57-4.855.734-9.656 1.738-14.43 2.874-5.152 1.223-10.304 2.551-15.406 4.043-4.012 1.192-7.973 2.657-11.933 4.016-5.208 1.816-10.497 3.281-15.977 4.094-3.39.488-6.672 1.574-10.063 2.25-3.414.68-6.859 1.058-10.25 1.793a293.4 293.4 0 0 0-14.484 3.469c-5.371 1.41-10.742 2.957-16.086 4.503-4.555 1.329-9.031 3.012-13.613 4.094a289.955 289.955 0 0 0-21.32 5.86c-6.211 1.953-12.313 4.23-18.254 6.945-3.008 1.383-5.965 2.82-8.977 4.148-2.684 1.196-5.371 2.524-8.164 3.309-6.781 1.871-13.645 3.418-20.777 2.957-3.391-.215-6.887.11-10.145-.68-8-1.898-15.945-4.23-23.433-7.676-7.594-3.468-14.918-7.457-21.942-12.011-4.637-3.012-9.277-6.078-13.832-9.223-5.344-3.691-10.633-7.46-15.894-11.258-2.688-1.953-5.29-4.011-7.922-6.047-4.446-3.5-8.895-6.972-13.29-10.523-2.847-2.305-5.53-4.773-8.327-7.133-4.637-3.906-9.329-7.758-13.97-11.691a541.594 541.594 0 0 1-9.355-8.192c-4.015-3.582-8-7.214-12.015-10.847-1.899-1.711-3.743-3.473-5.696-5.102-4.015-3.308-8.109-6.535-12.125-9.844-2.601-2.144-5.18-4.312-7.703-6.566-4.176-3.715-8.379-7.375-12.394-11.281-3.77-3.66-7.27-7.567-10.875-11.39-1.684-1.794-3.203-3.72-4.938-5.481-4.148-4.204-7.758-8.844-11.23-13.59-2.575-3.524-5.367-6.887-7.43-10.793-1.656-3.176-2.008-3.121-5.02-.735-.269.22-.675.247-.976.461-2.168 1.547-4.367 3.04-6.426 4.696-1.898 1.515-1.765 1.515.215 3.035 3.012 2.308 6.023 4.695 8.898 7.16 3.797 3.258 7.485 6.648 11.2 10.012 4.504 4.066 8.953 8.187 13.453 12.258 3.363 3.039 6.781 5.996 10.144 9.003 4.23 3.797 8.543 7.516 12.586 11.5 4.45 4.34 8.625 8.954 12.91 13.426 3.961 4.153 7.84 8.383 11.88 12.422 3.988 3.988 8.136 7.813 12.234 11.692 2.496 2.359 5.015 4.664 7.539 6.972 1.601 1.465 3.199 2.926 4.883 4.285 2.738 2.223 5.558 4.34 8.273 6.563 2.82 2.332 5.477 4.855 8.352 7.133 3.609 2.847 7.324 5.535 11.066 8.191 6.105 4.34 12.207 8.652 18.418 12.828 5.64 3.797 11.418 7.352 17.14 11.012 4.258 2.742 8.383 5.59 12.262 8.871 3.852 3.281 7.864 6.32 11.012 10.387 4.176 5.398 6.344 11.367 5.777 18.144-.433 5.047-5.453 7.434-9.113 6.32-3.445-1.058-6.621-2.765-9.523-4.96-4.418-3.336-8.95-6.567-13.125-10.2-4.828-4.203-9.25-8.87-13.942-13.238-3.66-3.414-7.433-6.7-11.176-10.035-5.207-4.637-10.414-9.3-15.648-13.914-2.875-2.547-5.86-4.988-8.707-7.594-4.856-4.394-9.629-8.894-14.484-13.262a152.808 152.808 0 0 0-7.512-6.347c-3.309-2.656-6.727-5.18-10.063-7.813-2.28-1.789-4.394-3.742-6.699-5.504-3.582-2.714-7.27-5.289-10.851-8.004a761.24 761.24 0 0 1-10.496-8.164c-2.848-2.222-5.696-4.445-8.489-6.75-1.953-1.629-3.77-3.445-5.722-5.101a965.117 965.117 0 0 1-12.938-10.469M595.27 497.88c2.738-2.227 5.394-4.586 8.27-6.617 4.206-2.985 8.491-5.805 12.991-8.41 6.43-3.715 13.102-6.536 20.235-8.461a142.355 142.355 0 0 1 13.562-2.903c5.914-.976 11.77-2.36 17.656-3.39 4.07-.735 8.22-1.114 12.286-1.79 4.234-.68 8.437-1.546 12.64-2.28 4.504-.786 9.004-1.571 13.508-2.305 4.883-.813 9.766-1.602 14.672-2.305 3.637-.516 7.242-1.004 10.879-1.684 4.527-.867 9.14-1.41 13.75-1.761 4.285-.325 8.57-.625 12.828-1.168 2.687-.325 5.426-.188 8.164-.512 5.074-.57 10.254-.461 15.379-.707 1.086-.055 2.144-.488 3.23-.516 1.301-.054.977-.46.297-.976-2.55-1.98-5.125-3.934-7.648-5.942-5.29-4.148-11.121-7.457-17.035-10.601-.758-.41-1.817-.516-2.684-.438-2.738.301-5.453.735-8.191 1.196-3.254.515-6.454 1.328-9.739 1.628-2.847.27-5.668.704-8.488 1.192-4.367.734-8.762 1.195-13.152 1.762-4.586.597-9.168 1.168-13.754 1.738-4.582.57-9.168 1.164-13.75 1.734-1.547.192-3.149.301-4.664.598-3.746.73-7.461 1.574-11.203 2.277-4.395.84-8.844 1.383-13.184 2.414-4.719 1.114-9.355 2.496-13.969 4.016-5.75 1.926-11.418 4.121-17.113 6.156-4.203 1.492-8.191 3.555-12.313 5.235-5.859 2.359-11.367 5.37-16.628 8.761-5.965 3.825-11.446 8.352-16.407 13.453-1.52 1.547-2.875 3.227-4.312 4.856-2.469 2.82-4.992 5.613-7.352 8.543-3.742 4.61-7.406 9.277-11.039 13.941-.379.461-.84 1.356-.625 1.68.324.516 1.113.844 1.762.977.488.109 1.086-.106 1.601-.243 2.903-.68 5.536-2.007 8.11-3.445 4.746-2.629 9.031-5.86 13.265-9.223 2.602-2.113 5.235-4.148 8.165-6.48m11.578-32.414c.789-.406 1.574-.84 2.386-1.219 5.211-2.523 10.364-5.207 15.817-7.187 4.34-1.602 8.543-3.637 12.91-5.13 5.992-2.058 12.094-3.874 18.2-5.64 3.468-1.004 6.995-1.789 10.55-2.496 3.578-.703 7.242-1.137 10.848-1.79 3.933-.702 7.84-1.6 11.773-2.276 3.984-.68 8-1.196 12.016-1.762 4.285-.598 8.57-1.332 12.882-1.711 4.528-.379 8.977-1.004 13.454-1.762 4.367-.707 8.757-1.222 13.152-1.765 3.691-.434 7.406-.786 11.094-1.192.273-.027.543-.324.761-.543.028-.055-.218-.46-.41-.57-2.953-1.68-5.965-3.309-8.894-5.043-1.114-.652-2.223-.79-3.446-.762-8.218.219-16.437.356-24.629.598-3.769.11-7.566.379-11.335.57-.188 0-.38-.027-.57 0-2.442.38-4.884.813-7.321 1.14-2.117.27-4.367.079-6.375.704-1.52.46-2.957.246-4.395.516-2.578.515-5.097 1.195-7.675 1.683-2.633.488-5.317.621-7.895 1.219-4.473 1.031-8.867 2.36-13.316 3.418-6.211 1.465-12.367 3.117-18.414 5.125-3.989 1.328-7.868 2.902-11.883 4.125-5.86 1.734-11.309 4.39-16.762 7.023-4.176 2.035-8.164 4.532-12.176 6.918-6.187 3.66-11.988 7.973-17.199 12.883-4.906 4.61-9.816 9.219-13.832 14.754-2.36 3.254-4.23 6.781-5.398 10.496-1.356 4.395-2.387 8.977-1.871 13.7.082.84.164 1.679.246 2.491.488-.62.922-1.273 1.437-1.898 3.39-4.176 6.781-8.379 10.227-12.531 3.308-3.957 6.562-7.946 10.035-11.742 4.855-5.29 10.117-10.227 16.055-14.32 3.011-2.118 6.078-4.368 9.953-6.024M249.422 306.008c-2.035-.188-4.203-.024-6.102-.676-1.738-.598-3.363-.273-5.02-.46-1.652-.192-3.308-.544-4.96-.544-5.235-.027-10.473-.191-15.68.516-2.414.324-4.855.379-7.27.625-1.273.133-2.546.297-3.796.566-2.469.543-4.934 1.14-7.375 1.738-3.149.758-6.32 1.493-9.469 2.332-4.148 1.114-8.297 2.305-12.45 3.473-4.663 1.3-9.327 2.602-13.991 3.934-3.446.972-6.864 2.031-10.336 3.008-5.371 1.492-10.766 2.902-16.137 4.367-5.371 1.437-10.77 2.93-16.14 4.34-4.801 1.25-9.63 2.332-14.403 3.687-5.422 1.547-10.766 3.285-16.137 5.02-5.613 1.816-11.176 3.742-16.52 6.183-4.472 2.063-8.488 4.801-12.476 7.621-4.61 3.254-5.805 9.766-3.633 14.43.489 1.059.68.68 1.356.273 4.773-2.902 9.52-5.859 14.375-8.574 3.336-1.87 6.863-3.414 10.308-5.152 5.504-2.766 10.985-5.613 16.489-8.38a62.508 62.508 0 0 1 5.398-2.358 541.57 541.57 0 0 1 13.344-4.801c5.996-2.09 11.933-4.313 17.984-6.16 6.184-1.899 12.477-3.442 18.715-5.098 4.883-1.273 9.79-2.414 14.7-3.633 2.874-.734 5.722-1.574 8.597-2.281 3.336-.813 6.672-1.625 10.035-2.332 3.203-.676 6.457-1.137 9.684-1.79 4.449-.894 8.843-2.034 13.293-2.82 4.257-.761 8.57-1.277 12.882-1.765 4.067-.461 8.165-.621 12.258-1.11 4.313-.515 8.707-.515 13.075-.625 3.66-.082 7.324-.027 10.984-.027.27 0 .516-.137.785-.187-.27-.137-.543-.301-.812-.41-.489-.188-1.004-.407-1.52-.54-3.144-.843-6.293-1.628-10.035-2.39M759.363 426.41c-1.765-.383-3.527-.789-5.316-1.14-.219-.028-.516.324-.762.515.137.192.274.57.434.57 1.793.27 3.093 1.383 4.586 2.25 1.03.598 2.496.57 3.77.598.35 0 .706-.734 1.058-1.113-.324-.215-.653-.488-1.004-.676a12.775 12.775 0 0 0-2.766-1.004M276.06 563.57c1.707-.11 1.492-1.383 1.382-2.468-.027-.192-1.113-.57-1.355-.38-.95.731-2.063 1.548-2.496 2.575-.192.437 1.137 1.305 2.469.273m523.796-107.652c-.187 0-.378-.027-.543 0-.296.082-.566.219-.867.324.246.082.489.246.707.219.352 0 .676-.164.703-.543Zm0 0"/></g></svg>