<svg xmlns="http://www.w3.org/2000/svg" width="368" height="571" fill="none"><path d="M400.032 569.848c-85.947-96.196-97.69-90.484-119.5-104-27.263-16.894-70.419-23.626-88.503-34-10.771-6.179-36.446-23.474-48.642-29.062-12.196-5.587-31.706-11.666-38.407-17.302-6.702-5.635-36.41-9.409-54.952-14.136-13.73-3.5-12-17.5-43.868-41.741-6.68-5.081-10.919-35.202 42.368-38.759m0 0c7.654-.511 25.325 20.401 35.5 22.5 28.836 5.948 38.673 20.888 58 5 10.474-8.61 17.353-42.631 30.501-50-9.719-4.702-18.001-18.5-30.501-27-15.691-10.671-25.5-4-43.5-9.5-12.57 3.888-27.912 55.6-50 59Zm-28.5 5.19c-23.14-1.908 1.157-34.139 11-48.69 11.5-17 31.398-67.76 43-73 12.985-5.864 11.888-5.078 30.952-4m75.393 10.5c-36.986-2.577-38.72-4.15-75.393-10.5m0 0c-26.451-32.5-58.951-53-79.451-79.5-26.256-33.94-7.5-67.5 2-63.5 24.055 10.128 25.452 38.581 39 48.5 28 20.5 75.484 43.78 84.671 54.961m74.329 43.539c-22-49-82.51-125.497-88-147-12-47-48.325-21.149-39 9 3.112 10.065 44.14 89.441 52.671 94.461m0 0c18.816 8.904 35.565 26.755 81.332 50.039 45.767 23.284 65.516 147.812 117.999 176 36.98 19.861 63.001 19.636 133.501 54m-266.464-252.5c-1.988-4.891 10.289-54.989 12.961-65.5 5.592-22 45.5-35 25 34-6.496 21.863 2 23 2 74m-52-17.5c45.85-3.169 36.643 29.41 63.091 75.737" stroke="#235f83" stroke-width="3"/></svg>