<?xml version="1.0" encoding="UTF-8"?>
<svg id="_Шар_1" data-name=" Шар 1" xmlns="http://www.w3.org/2000/svg" viewBox="0 0 52.3 60">
  <defs>
    <style>
      .cls-1 {
        fill: none;
        stroke: #235f83;
        stroke-miterlimit: 10;
      }

      .cls-2 {
        fill: #fff;
      }
    </style>
  </defs>
  <path class="cls-2" d="M0,60.5c2.2,0,4.39-.49,6.37-1.46,3.92-1.93,6.75-5.53,8.72-9.34,3.51-6.75,2.92-13.86,2.92-21.24,0-1.93,0-3.85,0-5.78,0-1,.04-2.56.08-3.78.05-1.71.36-3.4,1.02-4.98.21-.5.44-1,.67-1.48.76-1.57,1.69-3.06,2.79-4.41,2.93-3.59,7.03-5.99,11.53-7.01,2.08-.47,4.09-.54,6.2-.54h11.99v59.5H0v.5Z"/>
  <path class="cls-1" d="M52.3.5h-11.99c-2.11,0-4.13.07-6.2.54-4.5,1.02-8.6,3.43-11.53,7.01-1.1,1.35-3.54,4.03-4.27,8.27-.09.51-.17,1.02-.18,1.53-.04,1.2-.11,3.5-.11,4.83,0,1.93,0,3.85,0,5.78,0,7.38.59,14.48-2.92,21.24-1.98,3.81-4.8,7.41-8.72,9.34-1.98.97-4.16,1.46-6.37,1.46"/>
</svg>