<?xml version="1.0" encoding="UTF-8"?>
<svg id="_Шар_1" data-name=" Шар 1" xmlns="http://www.w3.org/2000/svg" viewBox="0 0 34.86 60">
  <defs>
    <style>
      .cls-1 {
        fill: none;
        stroke: #235f83;
        stroke-miterlimit: 10;
      }

      .cls-2 {
        fill: #235f83;
      }
    </style>
  </defs>
  <path class="cls-2" d="M0,.5h6.15s9.32.04,15.67,7.49c.07.08.13.16.2.24,1.46,1.85,2.36,4.16,3.17,6.35,1.13,3.05,2.02,6.18,2.83,9.33,1.66,6.44,3.4,12.98,4.55,19.54.97,5.56,1.79,10.91,1.79,16.55H0V.5Z"/>
  <path class="cls-1" d="M34.36,60c0-5.64-.82-10.99-1.79-16.55-1.15-6.55-2.89-13.09-4.55-19.54-.81-3.15-1.7-6.28-2.83-9.33-.81-2.19-1.71-4.5-3.17-6.35-.06-.08-.13-.16-.2-.24-2.34-2.74-5.4-4.79-8.77-6.05-2.02-.75-4.16-1.26-6.32-1.41C4.18.35,2.57.5,0,.5"/>
</svg>
