<?xml version="1.0" encoding="UTF-8"?>
<svg id="_Шар_1" data-name="Шар 1" xmlns="http://www.w3.org/2000/svg" viewBox="0 0 54.5 60">
  <defs>
    <style>
      .cls-1 {
        fill: #235f83;
      }

      .cls-2 {
        fill: none;
        stroke: #235f83;
        stroke-miterlimit: 10;
      }
    </style>
  </defs>
  <path class="cls-1" d="M0,0v60h54.5-4.04s-6.38-1.41-8.67-4.96c0,0-5.99-6.21-8.14-12.87s-5.16-15.69-6.16-19.68c0,0-3.17-14.13-7.58-17.06S17.5.5,0,0Z"/>
  <path class="cls-2" d="M54.5,60.5h-.6c-.16,0-.32-.02-.49-.03-.42-.03-.84-.08-1.26-.14s-.81-.13-1.21-.22-.79-.18-1.17-.29-.76-.23-1.13-.37-.73-.28-1.09-.44-.71-.33-1.05-.51-.68-.37-1.01-.57-.66-.41-.98-.64-.63-.45-.94-.7-.61-.49-.91-.75-.59-.53-.87-.81-.57-.56-.84-.86-.54-.6-.81-.91-.52-.63-.77-.95-.5-.66-.74-.99-.48-.69-.71-1.03-.46-.71-.69-1.07-.44-.73-.66-1.11-.43-.76-.63-1.14-.41-.78-.61-1.17-.39-.79-.58-1.19-.38-.81-.56-1.22-.36-.82-.54-1.24-.35-.83-.51-1.25-.33-.84-.49-1.27-.32-.85-.47-1.28-.31-.86-.46-1.29-.29-.86-.44-1.3-.28-.87-.42-1.3-.27-.87-.41-1.3-.26-.87-.39-1.3-.25-.86-.38-1.29-.24-.86-.36-1.29-.24-.85-.35-1.28-.23-.84-.34-1.26-.22-.83-.33-1.25-.22-.82-.32-1.23-.21-.8-.32-1.21-.21-.79-.31-1.18-.2-.77-.3-1.16c-1.64-6.21-3.61-13.1-9.15-17.02-.08-.06-.16-.11-.25-.17-1.4-.96-2.92-1.75-4.53-2.3s-3.31-.65-5.05-.71c-1.23-.04-2.46-.04-3.69-.04H0"/>
</svg>
