<svg xmlns="http://www.w3.org/2000/svg" xmlns:xlink="http://www.w3.org/1999/xlink" width="1080" zoomAndPan="magnify" viewBox="0 0 810 809.999993" height="1080" preserveAspectRatio="xMidYMid meet" version="1.0"><defs><clipPath id="c6ff934b5d"><path d="M 0 260.089844 L 809 260.089844 L 809 626.839844 L 0 626.839844 Z M 0 260.089844 " clip-rule="nonzero"/></clipPath></defs><g clip-path="url(#c6ff934b5d)"><path fill="#235f83" d="M 24.707031 435.523438 C 22.863281 432.703125 20.882812 430.179688 19.527344 427.332031 C 17.683594 423.507812 16.515625 419.328125 17.113281 415.070312 C 17.820312 410 19.527344 405.144531 21.804688 400.535156 C 24.707031 394.59375 28.886719 389.65625 33.660156 385.183594 C 35.285156 383.664062 35.230469 383.609375 33.117188 382.414062 C 25.195312 378.019531 16.707031 374.984375 8.164062 372.136719 C 6.292969 371.511719 4.257812 371.292969 2.332031 370.832031 C 1.816406 370.699219 1.191406 370.425781 0.976562 370.046875 C 0.597656 369.367188 0.214844 368.445312 0.378906 367.769531 C 0.460938 367.335938 1.519531 366.929688 2.167969 366.847656 C 6.128906 366.414062 9.816406 367.660156 13.507812 368.800781 C 21.371094 371.242188 28.722656 374.902344 36.074219 378.617188 C 36.640625 378.890625 37.210938 379.214844 37.671875 379.648438 C 38.621094 380.570312 39.21875 380.109375 40.085938 379.457031 C 44.183594 376.367188 48.332031 373.328125 52.507812 370.320312 C 53.40625 369.695312 53.539062 369.367188 53.050781 368.148438 C 50.855469 362.667969 51.070312 354.914062 56.199219 349.894531 C 60.808594 345.367188 66.261719 342.300781 71.984375 339.695312 C 78.792969 336.578125 85.816406 333.945312 93.113281 332.019531 C 97.585938 330.828125 101.980469 329.226562 106.511719 328.0625 C 111.367188 326.8125 116.195312 325.347656 121.050781 324.046875 C 126.175781 322.664062 131.328125 321.386719 136.429688 319.976562 C 141.878906 318.488281 147.304688 316.886719 152.757812 315.367188 C 158.480469 313.792969 164.230469 312.328125 169.925781 310.703125 C 174.753906 309.347656 179.527344 307.746094 184.355469 306.445312 C 188.800781 305.25 193.304688 304.273438 197.78125 303.214844 C 200.140625 302.648438 202.5 302.050781 204.886719 301.535156 C 206.324219 301.234375 207.789062 301.453125 209.28125 301.019531 C 211.476562 300.394531 213.917969 300.640625 216.25 300.3125 C 222.027344 299.5 227.859375 299.691406 233.664062 299.796875 C 237.570312 299.878906 241.476562 300.234375 245.355469 300.828125 C 247.902344 301.207031 250.425781 301.644531 252.976562 302.023438 C 257.832031 302.726562 262.414062 304.355469 267.050781 305.765625 C 268.597656 306.226562 270.0625 306.851562 271.582031 307.394531 C 273.019531 307.882812 274.320312 308.859375 275.949219 308.585938 C 277.574219 308.34375 279.257812 308.207031 280.804688 307.746094 C 286.714844 305.984375 292.574219 303.976562 298.515625 302.292969 C 302.257812 301.234375 306.109375 300.585938 309.90625 299.746094 C 314.246094 298.796875 318.585938 297.820312 322.925781 296.921875 C 326.125 296.273438 329.382812 295.785156 332.582031 295.078125 C 337.4375 293.996094 342.265625 292.882812 347.066406 291.609375 C 353.113281 289.980469 359.136719 288.136719 365.183594 286.425781 C 371.394531 284.664062 377.605469 282.820312 383.871094 281.246094 C 387.234375 280.40625 390.734375 280.082031 394.125 279.457031 C 403.617188 277.691406 413.082031 275.820312 422.195312 272.511719 C 425.476562 271.320312 428.652344 269.910156 431.988281 268.933594 C 435.703125 267.820312 439.5 267.0625 443.296875 266.167969 C 446.632812 265.378906 449.96875 264.511719 453.332031 263.886719 C 456.316406 263.34375 459.410156 263.265625 462.390625 262.640625 C 466.082031 261.851562 469.90625 262.042969 473.539062 260.957031 C 473.730469 260.902344 473.917969 260.957031 474.109375 260.957031 C 483.277344 260.171875 492.472656 260.144531 501.640625 260.496094 C 505.734375 260.660156 509.777344 262.152344 513.816406 263.128906 C 521.765625 265.054688 529.277344 268.117188 536.65625 271.535156 C 542.078125 274.03125 547.503906 276.609375 552.710938 279.539062 C 559.167969 283.144531 565.488281 286.996094 571.699219 290.984375 C 577.828125 294.917969 583.792969 299.09375 589.789062 303.214844 C 594.914062 306.742188 600.015625 310.242188 605.058594 313.875 C 612.21875 319 619.300781 324.210938 626.40625 329.417969 C 630.851562 332.671875 635.328125 335.898438 639.695312 339.261719 C 643.738281 342.382812 647.617188 345.691406 651.65625 348.835938 C 655.507812 351.847656 659.46875 354.667969 663.320312 357.652344 C 666.332031 359.984375 669.257812 362.425781 672.242188 364.785156 C 675.878906 367.660156 679.511719 370.507812 683.144531 373.382812 C 685.34375 375.121094 687.433594 376.964844 689.628906 378.699219 C 693.046875 381.382812 696.519531 383.988281 699.910156 386.699219 C 703.109375 389.25 706.226562 391.933594 709.429688 394.457031 C 714.5 398.445312 719.789062 402.214844 724.726562 406.390625 C 730.152344 410.949219 735.980469 414.910156 741.839844 418.867188 C 743.167969 419.761719 744.417969 420.0625 745.964844 420.171875 C 750.355469 420.441406 754.75 420.660156 759.0625 421.363281 C 762.183594 421.878906 765.140625 423.179688 767.363281 425.757812 C 769.371094 428.0625 769.53125 429.445312 767.390625 431.699219 C 766.359375 432.78125 766.441406 433.082031 767.742188 433.785156 C 770.128906 435.0625 772.410156 436.554688 774.660156 438.070312 C 777.535156 439.996094 780.4375 441.894531 783.203125 444.011719 C 785.238281 445.558594 787.027344 447.375 788.925781 449.109375 C 789.222656 449.382812 789.605469 449.597656 789.710938 449.925781 C 790.878906 453.367188 793.644531 452.445312 795.84375 451.824219 C 799.261719 450.902344 802.542969 451.226562 805.742188 452.121094 C 808.941406 453.015625 809.566406 456.8125 806.988281 458.605469 C 805.417969 459.714844 803.519531 460.691406 801.648438 461.019531 C 799.339844 461.425781 796.898438 461.125 794.511719 461.070312 C 793.890625 461.042969 793.292969 460.773438 792.667969 460.636719 C 791.773438 460.449219 790.445312 460.558594 790.09375 460.015625 C 788.222656 457.167969 785.535156 458.277344 783.121094 458.359375 C 778.183594 458.496094 773.222656 458.441406 768.339844 459.039062 C 765.707031 459.363281 763.078125 459.335938 760.472656 459.527344 C 756.105469 459.851562 751.714844 460.203125 747.347656 460.691406 C 742.84375 461.179688 738.367188 461.777344 733.894531 462.429688 C 728.792969 463.160156 723.695312 463.839844 718.652344 464.761719 C 715.042969 465.4375 711.4375 466.007812 707.800781 466.523438 C 702.675781 467.230469 697.601562 468.449219 692.503906 469.34375 C 689.601562 469.859375 686.644531 470.050781 683.742188 470.539062 C 680.867188 471.027344 678.046875 471.757812 675.199219 472.21875 C 672.1875 472.707031 669.152344 472.925781 666.140625 473.414062 C 663.453125 473.847656 660.824219 474.660156 658.140625 475.011719 C 655.859375 475.3125 653.636719 475.800781 651.414062 476.207031 C 647.128906 476.9375 642.949219 478.160156 638.71875 479.109375 C 633.347656 480.300781 628.113281 482.011719 623.3125 484.558594 C 616.992188 487.898438 610.863281 491.640625 605.25 496.140625 C 601.261719 499.34375 597.328125 502.597656 593.316406 505.742188 C 586.5625 511.03125 579.96875 516.539062 572.050781 520.066406 C 568.769531 521.527344 565.40625 522.777344 561.691406 521.691406 C 561.554688 521.664062 561.417969 521.609375 561.28125 521.582031 C 561.253906 521.855469 561.121094 522.207031 561.230469 522.34375 C 563.453125 525.378906 565.703125 528.417969 567.953125 531.429688 C 569.90625 534.003906 571.859375 536.582031 573.894531 539.105469 C 575.25 540.785156 576.824219 542.304688 578.152344 544.015625 C 579.917969 546.238281 581.542969 548.597656 583.308594 550.847656 C 584.90625 552.910156 586.589844 554.890625 588.214844 556.925781 C 588.785156 557.628906 589.4375 558.335938 589.84375 559.148438 C 590.46875 560.394531 590.03125 561.5625 588.894531 562.296875 C 587.59375 563.136719 586.96875 562.050781 586.316406 561.347656 C 585.125 560.042969 583.957031 558.6875 582.820312 557.304688 C 581.300781 555.433594 579.78125 553.5625 578.316406 551.636719 C 576.527344 549.25 574.65625 546.945312 572.648438 544.691406 C 569.554688 541.246094 567.003906 537.34375 563.941406 533.871094 C 561.445312 531.023438 559.410156 527.847656 557.214844 524.785156 C 556.429688 523.699219 555.613281 523.726562 554.773438 524.867188 C 551.300781 529.585938 547.800781 534.304688 544.386719 539.078125 C 541.78125 542.710938 539.585938 546.644531 536.710938 550.035156 C 535.027344 552.042969 532.9375 554.347656 529.683594 553.804688 C 528.652344 553.644531 527.488281 553.289062 526.726562 552.613281 C 524.640625 550.769531 522.824219 548.734375 521.710938 546.046875 C 520.4375 543.011719 518.589844 540.191406 517.179688 537.207031 C 516.53125 535.796875 515.636719 535.28125 514.144531 535.308594 C 509.832031 535.335938 505.570312 535.6875 501.3125 536.445312 C 497.246094 537.179688 493.09375 537.449219 489.027344 538.265625 C 484.171875 539.242188 479.425781 540.839844 474.515625 541.628906 C 467.4375 542.765625 460.519531 544.636719 453.605469 546.429688 C 445.738281 548.460938 438.007812 551.09375 430.277344 553.644531 C 423.335938 555.921875 416.417969 558.335938 409.53125 560.832031 C 401.90625 563.597656 394.339844 566.554688 386.71875 569.375 C 381.78125 571.191406 376.792969 572.898438 371.855469 574.71875 C 367.324219 576.371094 362.851562 578.082031 358.347656 579.816406 C 352.761719 581.960938 347.171875 584.074219 341.640625 586.300781 C 337.761719 587.871094 333.964844 589.636719 330.085938 591.261719 C 324.582031 593.539062 319.019531 595.738281 313.515625 598.042969 C 310.070312 599.480469 306.625 600.945312 303.234375 602.546875 C 295.964844 605.964844 288.695312 609.378906 281.507812 612.960938 C 278.363281 614.535156 275.515625 616.648438 272.421875 618.25 C 266.808594 621.179688 261.273438 624.296875 254.957031 625.734375 C 252.515625 626.277344 250.128906 626.820312 247.605469 626.847656 C 243.945312 626.902344 240.851562 625.574219 238.003906 623.457031 C 230.789062 618.085938 224.035156 612.230469 217.878906 605.664062 C 214.679688 602.246094 211.476562 598.855469 208.277344 595.464844 C 205.484375 592.484375 202.527344 589.609375 199.921875 586.460938 C 193.0625 578.214844 184.976562 571.136719 177.871094 563.164062 C 168.242188 552.339844 157.882812 542.277344 147.683594 532.027344 C 143.535156 527.875 139.058594 524.050781 134.691406 520.117188 C 131.328125 517.082031 127.964844 514.070312 124.519531 511.113281 C 118.472656 505.878906 112.640625 500.425781 105.996094 495.871094 C 99.023438 491.070312 92.054688 486.214844 85.058594 481.414062 C 78.492188 476.910156 72.253906 471.894531 65.664062 467.363281 C 57.148438 461.507812 49.171875 454.941406 40.414062 449.4375 C 34.554688 445.640625 29.5625 440.757812 24.707031 435.523438 M 523.203125 534.628906 C 521.492188 534.902344 521.410156 534.980469 522.089844 536.394531 C 523.308594 538.96875 524.476562 541.601562 525.859375 544.09375 C 526.566406 545.371094 527.625 546.480469 528.652344 547.566406 C 530.011719 548.976562 530.933594 549.03125 532.179688 547.621094 C 533.835938 545.75 535.351562 543.769531 536.789062 541.734375 C 539.664062 537.640625 542.40625 533.4375 545.308594 529.367188 C 547.179688 526.738281 549.265625 524.269531 551.191406 521.664062 C 551.871094 520.769531 552.984375 519.820312 552.140625 518.519531 C 551.382812 517.351562 550.433594 516.292969 549.511719 515.265625 C 546.878906 512.390625 544.195312 509.539062 541.539062 506.691406 C 541.347656 506.476562 541.101562 506.285156 540.941406 506.070312 C 538.28125 502.839844 535.8125 499.398438 532.910156 496.386719 C 528.382812 491.722656 523.582031 487.328125 518.863281 482.824219 C 514.441406 478.59375 510.074219 474.308594 505.570312 470.15625 C 503.105469 467.878906 500.417969 465.820312 497.894531 463.59375 C 493.992188 460.148438 490.058594 456.757812 486.316406 453.125 C 482.410156 449.328125 478.882812 445.152344 475.003906 441.355469 C 470.527344 436.988281 465.808594 432.863281 461.171875 428.632812 C 459.925781 427.492188 458.621094 426.410156 457.320312 425.351562 C 453.414062 422.203125 449.507812 419.085938 445.601562 415.9375 C 442.484375 413.445312 439.390625 410.921875 436.273438 408.425781 C 432.585938 405.46875 428.867188 402.539062 425.179688 399.558594 C 422.710938 397.550781 420.351562 395.40625 417.855469 393.425781 C 414.546875 390.769531 411.101562 388.273438 407.792969 385.617188 C 404.59375 383.066406 401.527344 380.328125 398.246094 377.886719 C 394.53125 375.09375 390.652344 372.515625 386.800781 369.882812 C 379.585938 364.949219 372.589844 359.660156 365.074219 355.265625 C 357.15625 350.628906 349.507812 345.527344 341.449219 341.105469 C 336.648438 338.476562 331.714844 336.144531 326.804688 333.785156 C 322.140625 331.558594 317.257812 329.824219 312.457031 327.953125 C 307.898438 326.164062 303.289062 324.480469 298.703125 322.746094 C 293.363281 320.738281 287.992188 318.8125 282.703125 316.667969 C 277.304688 314.472656 275.921875 313.957031 270.089844 314.121094 C 262.660156 314.308594 255.199219 313.550781 247.742188 314.609375 C 243.917969 315.148438 240.011719 314.609375 236.105469 315.125 C 232.253906 315.636719 228.320312 315.9375 224.441406 316.316406 C 220.210938 316.722656 216.035156 317.484375 211.855469 318.078125 C 206.515625 318.839844 201.25 319.898438 195.988281 321.0625 C 192.625 321.796875 189.289062 322.609375 185.953125 323.367188 C 182.617188 324.128906 179.253906 324.859375 175.917969 325.699219 C 171.472656 326.8125 167.023438 327.980469 162.601562 329.171875 C 158.453125 330.285156 154.300781 331.476562 150.152344 332.644531 C 144.699219 334.164062 139.222656 335.546875 133.796875 337.175781 C 126.445312 339.371094 119.203125 341.921875 112.042969 344.742188 C 104.882812 347.5625 97.804688 350.4375 91.023438 354.042969 C 85.898438 356.785156 80.691406 359.386719 75.589844 362.179688 C 71.089844 364.648438 66.667969 367.226562 62.300781 369.910156 C 59.5625 371.59375 59.644531 371.808594 61.515625 374.523438 C 64.984375 379.59375 68.539062 384.585938 72.28125 389.46875 C 76.457031 394.917969 81.015625 400.019531 85.707031 404.980469 C 92.949219 412.601562 100.355469 420.0625 108.492188 426.734375 C 110.011719 427.980469 111.449219 429.363281 112.964844 430.613281 C 116.925781 433.839844 120.996094 436.933594 124.875 440.269531 C 128.96875 443.765625 132.902344 447.484375 136.890625 451.089844 C 138.789062 452.800781 140.660156 454.535156 142.585938 456.191406 C 146.355469 459.417969 150.179688 462.5625 153.921875 465.820312 C 156.28125 467.878906 158.53125 470.050781 160.867188 472.136719 C 162.332031 473.46875 163.820312 474.769531 165.339844 476.015625 C 168.433594 478.566406 171.550781 481.0625 174.644531 483.609375 C 177.167969 485.699219 179.582031 487.921875 182.15625 489.929688 C 186.0625 492.996094 190.050781 495.980469 194.039062 498.9375 C 197.941406 501.8125 201.875 504.660156 205.863281 507.425781 C 209.523438 509.976562 213.242188 512.441406 216.929688 514.910156 C 221.378906 517.867188 225.824219 520.851562 230.382812 523.699219 C 233.417969 525.597656 236.757812 527.089844 239.710938 529.097656 C 243.238281 531.511719 247.171875 533.03125 251.050781 534.601562 C 255.335938 536.339844 259.785156 537.777344 264.257812 539.023438 C 268.082031 540.109375 271.988281 541.167969 275.949219 541.492188 C 280.886719 541.898438 285.847656 541.464844 290.8125 540.542969 C 297.238281 539.347656 303.261719 537.125 309.230469 534.628906 C 313.324219 532.894531 317.417969 531.105469 321.433594 529.152344 C 329.191406 525.378906 337.519531 523.128906 345.761719 520.851562 C 352.871094 518.898438 359.976562 516.972656 367.054688 514.964844 C 371.476562 513.71875 375.898438 512.550781 380.316406 511.386719 C 385.28125 510.054688 390.191406 508.617188 395.179688 507.480469 C 399.359375 506.53125 403.617188 505.960938 407.820312 505.121094 C 412.160156 504.226562 416.445312 503.03125 420.8125 502.300781 C 425.832031 501.457031 430.683594 500.15625 435.460938 498.5 C 440.125 496.902344 444.734375 495.191406 449.5625 494.082031 C 454.28125 492.996094 458.867188 491.367188 463.53125 490.148438 C 467.113281 489.226562 470.773438 488.464844 474.433594 487.816406 C 477.335938 487.300781 480.265625 486.785156 483.222656 486.675781 C 488.347656 486.511719 493.449219 486.460938 498.4375 488.304688 C 503.566406 490.203125 508.554688 492.289062 513.273438 495.136719 C 520.300781 499.371094 526.863281 504.0625 532.613281 509.921875 C 537.792969 515.183594 539.125 521.691406 539.042969 528.664062 C 539.015625 531.292969 536.300781 533.84375 533.644531 534.085938 C 530.390625 534.332031 527.082031 534.441406 523.203125 534.628906 M 600.773438 316.425781 C 600.585938 316.425781 600.339844 316.507812 600.203125 316.425781 C 595.050781 312.761719 589.980469 309.019531 584.769531 305.46875 C 577.121094 300.257812 569.417969 295.078125 561.609375 290.089844 C 556.914062 287.105469 552.089844 284.257812 547.125 281.761719 C 540.667969 278.507812 534.050781 275.605469 527.460938 272.675781 C 524.285156 271.265625 521.003906 270.042969 517.695312 268.988281 C 514.195312 267.875 510.617188 266.953125 507.007812 266.113281 C 504.515625 265.542969 501.9375 264.945312 499.414062 264.945312 C 491.578125 264.972656 483.765625 265.269531 475.925781 265.460938 C 475.738281 265.460938 475.519531 265.40625 475.355469 265.460938 C 471.53125 266.574219 467.519531 266.328125 463.613281 267.140625 C 460.628906 267.765625 457.5625 267.820312 454.554688 268.390625 C 449.914062 269.230469 445.277344 270.097656 440.722656 271.292969 C 434.917969 272.8125 429.246094 274.683594 423.660156 276.90625 C 418.996094 278.777344 414.222656 280.378906 409.175781 281.109375 C 406.871094 281.4375 404.621094 282.222656 402.316406 282.683594 C 399.113281 283.363281 395.886719 283.957031 392.660156 284.527344 C 389.242188 285.152344 385.769531 285.503906 382.433594 286.398438 C 375.246094 288.324219 368.140625 290.550781 361.007812 292.609375 C 355.582031 294.183594 350.15625 295.839844 344.679688 297.195312 C 339.933594 298.359375 335.078125 299.175781 330.25 300.125 C 327.210938 300.722656 324.144531 301.234375 321.136719 301.886719 C 317.09375 302.78125 313.054688 303.785156 309.011719 304.761719 C 305.160156 305.683594 301.335938 306.714844 297.457031 307.582031 C 293.0625 308.558594 288.96875 310.621094 284.464844 311.136719 C 284.25 311.164062 284.03125 311.378906 283.8125 311.515625 C 284.003906 311.761719 284.140625 312.167969 284.382812 312.246094 C 286.472656 313.0625 288.5625 313.792969 290.648438 314.582031 C 295.503906 316.398438 300.359375 318.1875 305.160156 320.03125 C 309.824219 321.824219 314.382812 323.828125 319.074219 325.539062 C 326.289062 328.167969 333.367188 331.179688 340.09375 334.867188 C 347.121094 338.71875 353.980469 342.84375 360.816406 346.992188 C 366.375 350.355469 371.882812 353.882812 377.308594 357.460938 C 384.792969 362.371094 392.304688 367.28125 399.25 372.976562 C 404.023438 376.882812 409.070312 380.460938 413.949219 384.285156 C 416.390625 386.183594 418.671875 388.273438 421.058594 390.199219 C 424.664062 393.101562 428.351562 395.894531 431.960938 398.824219 C 435.511719 401.699219 438.957031 404.710938 442.511719 407.613281 C 447.257812 411.464844 452.085938 415.261719 456.859375 419.085938 C 458.242188 420.199219 459.570312 421.417969 460.925781 422.558594 C 464.507812 425.566406 468.277344 428.363281 471.613281 431.589844 C 478.421875 438.125 484.902344 444.988281 491.710938 451.523438 C 495.5625 455.214844 499.820312 458.46875 503.835938 462.019531 C 507.957031 465.65625 512.027344 469.316406 516.042969 473.058594 C 520.570312 477.292969 525.101562 481.578125 529.496094 485.972656 C 533.15625 489.605469 536.601562 493.429688 540.152344 497.171875 C 540.289062 497.308594 540.425781 497.445312 540.5625 497.578125 C 544.792969 502.570312 549.023438 507.589844 553.253906 512.578125 C 553.417969 512.769531 553.660156 512.902344 553.851562 513.066406 C 553.933594 512.796875 554.09375 512.550781 554.066406 512.308594 C 553.90625 510.734375 553.445312 509.160156 553.550781 507.640625 C 553.714844 505.28125 554.421875 502.949219 554.609375 500.589844 C 555.125 494.351562 558 489.0625 561.121094 483.882812 C 563.480469 479.949219 566.597656 476.53125 569.878906 473.332031 C 572.730469 470.539062 575.65625 467.824219 578.640625 465.140625 C 581.082031 462.945312 583.441406 460.609375 586.179688 458.847656 C 590.546875 456 594.914062 453.125 599.472656 450.46875 C 605.304688 447.078125 611.378906 444.230469 617.480469 441.515625 C 623.910156 438.667969 630.71875 436.6875 637.417969 434.4375 C 640.726562 433.324219 644.089844 432.265625 647.507812 431.5625 C 654.316406 430.152344 660.933594 427.875 667.847656 426.816406 C 672.324219 426.136719 676.691406 424.808594 681.140625 424.050781 C 685.695312 423.261719 690.332031 423.019531 694.863281 422.175781 C 696.925781 421.796875 699.066406 422.152344 700.964844 421.582031 C 704.273438 420.578125 707.636719 421.011719 710.949219 420.6875 C 718.136719 419.953125 725.429688 420.144531 732.671875 419.953125 C 732.863281 419.953125 733.078125 420.007812 733.242188 419.953125 C 733.539062 419.84375 733.8125 419.628906 734.082031 419.464844 C 733.867188 419.25 733.675781 419.003906 733.40625 418.8125 C 729.636719 416.046875 725.785156 413.390625 722.09375 410.542969 C 717.890625 407.285156 713.875 403.84375 709.726562 400.5625 C 704.519531 396.4375 699.203125 392.398438 693.996094 388.273438 C 689.980469 385.101562 686.046875 381.84375 682.0625 378.671875 C 676.636719 374.359375 671.15625 370.074219 665.707031 365.761719 C 662.722656 363.402344 659.792969 360.988281 656.78125 358.628906 C 653.527344 356.078125 650.191406 353.554688 646.910156 351.035156 C 644.714844 349.324219 642.570312 347.589844 640.347656 345.90625 C 637.714844 343.902344 635.003906 342.003906 632.398438 339.996094 C 628.003906 336.605469 623.71875 333.078125 619.246094 329.796875 C 613.304688 325.375 607.148438 321.089844 600.773438 316.425781 M 404.269531 534.332031 C 400.171875 535.390625 396.023438 536.285156 391.980469 537.558594 C 384.929688 539.753906 377.742188 541.355469 370.636719 543.335938 C 362.089844 545.722656 353.601562 548.300781 345.085938 550.847656 C 339.417969 552.53125 333.800781 554.375 328.132812 556.03125 C 324.5 557.085938 320.835938 557.984375 317.175781 558.933594 C 312.210938 560.234375 307.25 561.507812 302.285156 562.785156 C 298.976562 563.625 295.640625 564.492188 292.332031 565.304688 C 289.078125 566.09375 285.847656 566.933594 282.566406 567.585938 C 281.375 567.828125 281.238281 568.371094 280.886719 569.402344 C 279.800781 572.601562 278.550781 575.75 276.925781 578.757812 C 273.261719 585.539062 268.300781 591.371094 263.253906 597.066406 C 260.734375 599.914062 257.421875 602.085938 254.628906 604.714844 C 252.214844 606.964844 249.640625 606.914062 246.953125 605.636719 C 243.15625 603.847656 239.902344 601.1875 236.402344 598.910156 C 228.484375 593.8125 221.078125 588.035156 213.972656 581.878906 C 210.148438 578.570312 206.566406 574.988281 202.933594 571.460938 C 198.132812 566.742188 193.414062 561.914062 188.613281 557.195312 C 186.308594 554.945312 183.894531 552.800781 181.507812 550.632812 C 177.65625 547.132812 173.75 543.6875 169.925781 540.191406 C 166.695312 537.234375 163.523438 534.195312 160.351562 531.183594 C 156.121094 527.171875 151.886719 523.15625 147.710938 519.113281 C 141.011719 512.660156 134.257812 506.257812 127.722656 499.640625 C 121.484375 493.320312 114.8125 487.488281 107.785156 482.066406 C 103.878906 479.054688 100.246094 475.746094 96.230469 472.925781 C 88.285156 467.308594 80.175781 461.914062 72.09375 456.488281 C 66.449219 452.691406 61.054688 448.566406 56.253906 443.792969 C 51.613281 439.183594 47.328125 434.21875 42.90625 429.363281 C 39.625 425.757812 37.183594 421.664062 35.746094 416.996094 C 34.824219 413.988281 35.71875 411.328125 38.460938 410.597656 C 40.464844 410.054688 42.828125 410.027344 44.804688 410.570312 C 47.003906 411.164062 48.984375 412.601562 50.992188 413.742188 C 55.167969 416.074219 58.421875 419.574219 62.058594 422.585938 C 65.800781 425.675781 69.164062 429.230469 72.714844 432.539062 C 74.234375 433.949219 75.808594 435.277344 77.382812 436.632812 C 81.773438 440.457031 86.167969 444.28125 90.5625 448.105469 C 92.136719 449.464844 93.628906 450.875 95.253906 452.175781 C 99.078125 455.269531 102.929688 458.332031 106.78125 461.398438 C 109.601562 463.621094 112.453125 465.84375 115.328125 468.042969 C 121.484375 472.734375 127.695312 477.347656 133.796875 482.09375 C 137.972656 485.347656 142.042969 488.738281 146.136719 492.101562 C 149.664062 495.003906 153.246094 497.878906 156.660156 500.914062 C 160.214844 504.089844 163.605469 507.453125 167.078125 510.707031 C 167.210938 510.84375 167.347656 510.976562 167.484375 511.113281 C 170.984375 514.042969 174.535156 516.945312 178.007812 519.929688 C 181.425781 522.886719 184.84375 525.867188 188.179688 528.933594 C 193.929688 534.222656 199.625 539.539062 205.292969 544.882812 C 207.597656 547.078125 209.660156 549.546875 212.101562 551.582031 C 216.496094 555.269531 221.023438 558.796875 225.636719 562.214844 C 228.105469 564.03125 230.679688 565.792969 233.445312 567.070312 C 236.1875 568.34375 238.761719 568.125 238.761719 563.8125 C 238.761719 560.042969 237.21875 556.789062 235.507812 553.589844 C 232.660156 548.273438 227.859375 544.746094 223.382812 541.058594 C 218.828125 537.316406 213.703125 534.25 208.792969 530.96875 C 205.863281 529.015625 202.824219 527.226562 199.867188 525.300781 C 194.632812 521.882812 189.316406 518.574219 184.191406 514.964844 C 179.226562 511.464844 174.589844 507.480469 169.625 504.007812 C 164.5 500.425781 159.890625 496.25 155.117188 492.289062 C 152.429688 490.09375 149.855469 487.789062 147.195312 485.535156 C 143.480469 482.390625 139.546875 479.488281 136.101562 476.070312 C 128.535156 468.585938 121.210938 460.855469 113.753906 453.234375 C 109.304688 448.703125 104.800781 444.175781 100.246094 439.726562 C 96.558594 436.117188 92.839844 432.539062 89.015625 429.09375 C 84.976562 425.460938 80.746094 422.015625 76.675781 418.433594 C 72.5 414.746094 68.402344 410.949219 64.253906 407.207031 C 60.050781 403.382812 55.765625 399.636719 51.667969 395.734375 C 48.277344 392.53125 44.589844 389.765625 40.765625 387.109375 C 39.515625 386.238281 38.839844 386.238281 37.917969 387.296875 C 36.179688 389.277344 34.390625 391.257812 32.601562 393.210938 C 28.453125 397.660156 25.65625 402.949219 23.652344 408.617188 C 22.699219 411.328125 21.859375 414.257812 21.859375 417.078125 C 21.859375 419.980469 22.753906 422.992188 24.191406 425.59375 C 26.988281 430.722656 30.378906 435.359375 35.125 439.019531 C 39.410156 442.328125 43.828125 445.449219 48.25 448.566406 C 53.1875 452.066406 58.070312 455.621094 62.953125 459.199219 C 67.699219 462.699219 72.335938 466.308594 77.109375 469.75 C 81.394531 472.84375 85.734375 475.882812 90.128906 478.808594 C 96.664062 483.148438 103.148438 487.597656 109.441406 492.289062 C 114.675781 496.167969 119.910156 500.019531 124.574219 504.605469 C 127.421875 507.398438 130.351562 510.109375 133.335938 512.796875 C 138.164062 517.136719 143.101562 521.394531 147.957031 525.707031 C 149.039062 526.65625 150.015625 527.742188 151.019531 528.769531 C 160.566406 538.507812 170.140625 548.246094 179.660156 558.007812 C 183.269531 561.699219 186.769531 565.46875 190.320312 569.210938 C 194.011719 573.089844 197.671875 576.96875 201.359375 580.847656 C 205.917969 585.621094 210.5 590.367188 215.058594 595.140625 C 215.464844 595.546875 215.898438 595.925781 216.277344 596.363281 C 218.9375 599.398438 221.511719 602.546875 224.304688 605.476562 C 226.585938 607.863281 229.160156 610.003906 231.601562 612.253906 C 231.738281 612.390625 231.875 612.554688 232.007812 612.664062 C 235.019531 614.914062 238.058594 617.136719 241.070312 619.417969 C 243.15625 621.015625 245.433594 622.101562 248.09375 621.992188 C 250.75 621.882812 253.246094 621.097656 255.769531 620.3125 C 259.863281 619.035156 263.851562 617.4375 267.621094 615.402344 C 272.289062 612.878906 276.761719 610.003906 281.453125 607.589844 C 291.21875 602.574219 301.171875 597.960938 311.289062 593.730469 C 316.714844 591.453125 322.085938 589.039062 327.507812 586.8125 C 334.507812 583.9375 341.585938 581.226562 348.609375 578.40625 C 355.148438 575.800781 361.628906 573.0625 368.222656 570.566406 C 377.0625 567.203125 385.878906 563.8125 394.828125 560.75 C 404.539062 557.441406 414.113281 553.75 423.824219 550.386719 C 432.097656 547.511719 440.503906 544.910156 448.992188 542.628906 C 456.667969 540.570312 464.371094 538.804688 472.101562 536.988281 C 475.980469 536.09375 480.050781 535.714844 483.847656 534.546875 C 489.839844 532.703125 496.023438 532.269531 502.128906 531.238281 C 505.164062 530.722656 508.3125 530.804688 511.429688 530.589844 C 511.785156 530.5625 512.136719 530.425781 512.488281 530.34375 C 512.378906 530.019531 512.324219 529.613281 512.109375 529.367188 C 511.050781 528.253906 510.074219 526.980469 508.828125 526.113281 C 501.585938 521.015625 493.394531 518.246094 484.6875 517.40625 C 479.804688 516.945312 474.816406 517.675781 469.878906 517.867188 C 469.769531 517.867188 469.6875 517.839844 469.578125 517.867188 C 466.242188 518.4375 462.90625 519.007812 459.597656 519.601562 C 456.261719 520.199219 452.898438 520.605469 449.644531 521.421875 C 442.292969 523.210938 434.972656 525.109375 427.703125 527.144531 C 420.730469 529.125 413.816406 531.347656 406.898438 533.464844 C 406.140625 533.707031 405.324219 533.871094 404.269531 534.332031 M 74.914062 441.164062 C 73.148438 439.589844 71.359375 438.042969 69.625 436.417969 C 66.34375 433.378906 63.140625 430.234375 59.804688 427.222656 C 56.875 424.5625 53.972656 421.878906 50.855469 419.492188 C 48.738281 417.863281 46.625 416.046875 43.882812 415.398438 C 42.800781 415.125 41.441406 413.90625 40.683594 415.371094 C 40.304688 416.074219 40.929688 417.484375 41.390625 418.433594 C 43.613281 423.125 46.867188 427.140625 50.3125 430.9375 C 57.933594 439.375 66.394531 446.914062 75.699219 453.449219 C 82.316406 458.089844 89.179688 462.375 95.851562 466.957031 C 99.949219 469.777344 103.878906 472.761719 107.8125 475.828125 C 110.472656 477.886719 112.964844 480.195312 115.542969 482.335938 C 119.042969 485.292969 122.730469 488.03125 126.039062 491.179688 C 133.089844 497.824219 139.953125 504.660156 146.925781 511.414062 C 151.671875 515.996094 156.445312 520.578125 161.21875 525.109375 C 164.308594 528.066406 167.457031 530.996094 170.601562 533.898438 C 174.914062 537.882812 179.308594 541.789062 183.621094 545.777344 C 186.984375 548.871094 190.347656 551.988281 193.601562 555.1875 C 200.140625 561.617188 206.566406 568.152344 213.078125 574.609375 C 215.03125 576.535156 217.039062 578.40625 219.179688 580.113281 C 223.222656 583.34375 227.289062 586.515625 231.492188 589.527344 C 237.054688 593.515625 242.722656 597.3125 248.363281 601.191406 C 249.667969 602.085938 250.96875 601.8125 252.082031 600.890625 C 253.898438 599.371094 255.632812 597.800781 257.371094 596.199219 C 261.628906 592.238281 264.992188 587.519531 268.488281 582.910156 C 271.417969 579.03125 273.699219 574.90625 275.570312 570.484375 C 276.113281 569.238281 275.839844 568.695312 274.511719 568.859375 C 272.882812 569.074219 271.664062 568.179688 270.386719 567.609375 C 268.84375 566.90625 267.8125 564.328125 268.300781 562.757812 C 269.222656 559.71875 271.039062 557.25 274.160156 556.382812 C 275.597656 555.976562 277.0625 554.835938 278.851562 555.867188 C 280.859375 557.035156 282.1875 558.417969 282.1875 560.832031 C 282.1875 562.375 282.785156 562.785156 284.222656 562.402344 C 290.132812 560.859375 296.046875 559.285156 301.988281 557.792969 C 309.175781 556.003906 316.417969 554.457031 323.550781 552.53125 C 329.761719 550.847656 335.835938 548.679688 341.992188 546.808594 C 347.824219 545.019531 353.683594 543.335938 359.515625 541.574219 C 362.6875 540.625 365.835938 539.566406 369.035156 538.699219 C 374.59375 537.207031 380.210938 535.851562 385.769531 534.359375 C 391.574219 532.785156 397.351562 531.078125 403.128906 529.421875 C 408.988281 527.742188 414.84375 526.058594 420.703125 524.324219 C 423.363281 523.535156 425.992188 522.613281 428.679688 521.910156 C 433.640625 520.605469 438.632812 519.386719 443.648438 518.191406 C 447.609375 517.242188 451.570312 516.347656 455.558594 515.535156 C 457.972656 515.046875 460.492188 514.9375 462.878906 514.316406 C 466.839844 513.257812 470.910156 513.011719 474.921875 512.742188 C 481.460938 512.335938 488.023438 512.441406 494.480469 514.289062 C 499.796875 515.804688 504.757812 517.949219 509.449219 520.796875 C 512.867188 522.886719 515.769531 525.542969 517.859375 529.042969 C 518.128906 529.503906 518.917969 529.9375 519.460938 529.9375 C 523.90625 529.828125 528.382812 529.613281 532.832031 529.367188 C 533.265625 529.339844 533.671875 528.742188 534.050781 528.363281 C 535.351562 527.089844 534.023438 525.789062 534.050781 524.511719 C 534.132812 518.21875 530.605469 513.691406 526.265625 509.839844 C 523.335938 507.261719 519.785156 505.417969 516.691406 503.003906 C 511.59375 498.988281 505.980469 496.0625 499.929688 493.835938 C 496.8125 492.699219 493.636719 491.394531 490.300781 491.285156 C 486.832031 491.179688 483.277344 491.339844 479.832031 491.855469 C 474.976562 492.589844 470.175781 493.59375 465.402344 494.730469 C 460.25 495.953125 455.097656 497.28125 449.996094 498.773438 C 445.984375 499.964844 442.023438 501.429688 438.0625 502.789062 C 432.855469 504.605469 427.566406 506.070312 422.085938 506.882812 C 418.695312 507.371094 415.414062 508.457031 412.023438 509.132812 C 408.609375 509.8125 405.164062 510.191406 401.773438 510.925781 C 396.917969 511.953125 392.089844 513.121094 387.289062 514.394531 C 381.917969 515.804688 376.546875 517.351562 371.203125 518.898438 C 366.648438 520.226562 362.171875 521.910156 357.589844 522.992188 C 350.402344 524.675781 343.296875 526.628906 336.269531 528.851562 C 330.058594 530.804688 323.957031 533.082031 318.015625 535.796875 C 315.007812 537.179688 312.050781 538.617188 309.039062 539.945312 C 306.355469 541.140625 303.667969 542.46875 300.875 543.253906 C 294.09375 545.125 287.230469 546.671875 280.097656 546.210938 C 276.707031 545.996094 273.210938 546.320312 269.953125 545.53125 C 261.953125 543.632812 254.007812 541.300781 246.519531 537.855469 C 238.925781 534.386719 231.601562 530.398438 224.578125 525.84375 C 219.941406 522.832031 215.300781 519.765625 210.746094 516.621094 C 205.402344 512.929688 200.113281 509.160156 194.851562 505.363281 C 192.164062 503.410156 189.5625 501.351562 186.929688 499.316406 C 182.484375 495.816406 178.035156 492.34375 173.640625 488.792969 C 170.792969 486.488281 168.109375 484.019531 165.3125 481.660156 C 160.675781 477.753906 155.984375 473.902344 151.34375 469.96875 C 148.199219 467.285156 145.082031 464.542969 141.988281 461.777344 C 137.972656 458.195312 133.988281 454.5625 129.972656 450.929688 C 128.074219 449.21875 126.230469 447.457031 124.277344 445.828125 C 120.261719 442.519531 116.167969 439.292969 112.152344 435.984375 C 109.550781 433.839844 106.972656 431.671875 104.449219 429.417969 C 100.273438 425.703125 96.070312 422.042969 92.054688 418.136719 C 88.285156 414.476562 84.785156 410.570312 81.179688 406.746094 C 79.496094 404.953125 77.976562 403.027344 76.242188 401.265625 C 72.09375 397.0625 68.484375 392.421875 65.011719 387.675781 C 62.4375 384.152344 59.644531 380.789062 57.582031 376.882812 C 55.925781 373.707031 55.574219 373.761719 52.5625 376.148438 C 52.292969 376.367188 51.886719 376.394531 51.585938 376.609375 C 49.417969 378.15625 47.21875 379.648438 45.160156 381.304688 C 43.261719 382.820312 43.394531 382.820312 45.375 384.339844 C 48.386719 386.648438 51.398438 389.035156 54.273438 391.5 C 58.070312 394.757812 61.757812 398.148438 65.472656 401.511719 C 69.976562 405.578125 74.425781 409.699219 78.925781 413.769531 C 82.289062 416.808594 85.707031 419.765625 89.070312 422.773438 C 93.300781 426.570312 97.613281 430.289062 101.65625 434.273438 C 106.105469 438.613281 110.28125 443.226562 114.566406 447.699219 C 118.527344 451.851562 122.40625 456.082031 126.445312 460.121094 C 130.433594 464.109375 134.582031 467.933594 138.679688 471.8125 C 141.175781 474.171875 143.695312 476.476562 146.21875 478.785156 C 147.820312 480.25 149.417969 481.710938 151.101562 483.070312 C 153.839844 485.292969 156.660156 487.410156 159.375 489.632812 C 162.195312 491.964844 164.851562 494.488281 167.726562 496.765625 C 171.335938 499.613281 175.050781 502.300781 178.792969 504.957031 C 184.898438 509.296875 191 513.609375 197.210938 517.785156 C 202.851562 521.582031 208.628906 525.136719 214.351562 528.796875 C 218.609375 531.539062 222.734375 534.386719 226.613281 537.667969 C 230.464844 540.949219 234.476562 543.988281 237.625 548.054688 C 241.800781 553.453125 243.96875 559.421875 243.402344 566.199219 C 242.96875 571.246094 237.949219 573.632812 234.289062 572.519531 C 230.84375 571.460938 227.667969 569.753906 224.765625 567.558594 C 220.347656 564.222656 215.816406 560.992188 211.640625 557.359375 C 206.8125 553.15625 202.390625 548.488281 197.699219 544.121094 C 194.039062 540.707031 190.265625 537.421875 186.523438 534.085938 C 181.316406 529.449219 176.109375 524.785156 170.875 520.171875 C 168 517.625 165.015625 515.183594 162.167969 512.578125 C 157.3125 508.183594 152.539062 503.683594 147.683594 499.316406 C 145.242188 497.117188 142.746094 495.003906 140.171875 492.96875 C 136.863281 490.3125 133.445312 487.789062 130.109375 485.15625 C 127.828125 483.367188 125.714844 481.414062 123.410156 479.652344 C 119.828125 476.9375 116.140625 474.363281 112.558594 471.648438 C 109.035156 468.964844 105.535156 466.226562 102.0625 463.484375 C 99.214844 461.261719 96.367188 459.039062 93.574219 456.734375 C 91.621094 455.105469 89.804688 453.289062 87.851562 451.632812 C 83.59375 448.242188 79.386719 444.851562 74.914062 441.164062 M 595.269531 497.878906 C 598.007812 495.652344 600.664062 493.292969 603.539062 491.261719 C 607.746094 488.277344 612.03125 485.457031 616.53125 482.851562 C 622.960938 479.136719 629.632812 476.316406 636.765625 474.390625 C 641.242188 473.195312 645.742188 472.246094 650.328125 471.488281 C 656.242188 470.511719 662.097656 469.128906 667.984375 468.097656 C 672.054688 467.363281 676.203125 466.984375 680.269531 466.308594 C 684.503906 465.628906 688.707031 464.761719 692.910156 464.027344 C 697.414062 463.242188 701.914062 462.457031 706.417969 461.722656 C 711.300781 460.910156 716.183594 460.121094 721.089844 459.417969 C 724.726562 458.902344 728.332031 458.414062 731.96875 457.734375 C 736.496094 456.867188 741.109375 456.324219 745.71875 455.972656 C 750.003906 455.648438 754.289062 455.347656 758.546875 454.804688 C 761.234375 454.480469 763.972656 454.617188 766.710938 454.292969 C 771.785156 453.722656 776.964844 453.832031 782.089844 453.585938 C 783.175781 453.53125 784.234375 453.097656 785.320312 453.070312 C 786.621094 453.015625 786.296875 452.609375 785.617188 452.09375 C 783.066406 450.113281 780.492188 448.160156 777.96875 446.152344 C 772.679688 442.003906 766.847656 438.695312 760.933594 435.550781 C 760.175781 435.140625 759.117188 435.035156 758.25 435.113281 C 755.511719 435.414062 752.796875 435.847656 750.058594 436.308594 C 746.804688 436.824219 743.605469 437.636719 740.320312 437.9375 C 737.472656 438.207031 734.652344 438.640625 731.832031 439.128906 C 727.464844 439.863281 723.070312 440.324219 718.679688 440.890625 C 714.09375 441.488281 709.511719 442.058594 704.925781 442.628906 C 700.34375 443.199219 695.757812 443.792969 691.175781 444.363281 C 689.628906 444.554688 688.027344 444.664062 686.511719 444.960938 C 682.765625 445.691406 679.050781 446.535156 675.308594 447.238281 C 670.914062 448.078125 666.464844 448.621094 662.125 449.652344 C 657.40625 450.765625 652.769531 452.148438 648.15625 453.667969 C 642.40625 455.59375 636.738281 457.789062 631.042969 459.824219 C 626.839844 461.316406 622.851562 463.378906 618.730469 465.058594 C 612.871094 467.417969 607.363281 470.429688 602.101562 473.820312 C 596.136719 477.644531 590.65625 482.171875 585.695312 487.273438 C 584.175781 488.820312 582.820312 490.5 581.382812 492.128906 C 578.914062 494.949219 576.390625 497.742188 574.03125 500.671875 C 570.289062 505.28125 566.625 509.949219 562.992188 514.613281 C 562.613281 515.074219 562.152344 515.96875 562.367188 516.292969 C 562.691406 516.808594 563.480469 517.136719 564.128906 517.269531 C 564.617188 517.378906 565.214844 517.164062 565.730469 517.027344 C 568.632812 516.347656 571.265625 515.019531 573.839844 513.582031 C 578.585938 510.953125 582.871094 507.722656 587.105469 504.359375 C 589.707031 502.246094 592.339844 500.210938 595.269531 497.878906 M 606.847656 465.464844 C 607.636719 465.058594 608.421875 464.625 609.234375 464.246094 C 614.445312 461.722656 619.597656 459.039062 625.050781 457.058594 C 629.390625 455.457031 633.59375 453.421875 637.960938 451.929688 C 643.953125 449.871094 650.054688 448.054688 656.160156 446.289062 C 659.628906 445.285156 663.15625 444.5 666.710938 443.792969 C 670.289062 443.089844 673.953125 442.65625 677.558594 442.003906 C 681.492188 441.300781 685.398438 440.402344 689.332031 439.726562 C 693.316406 439.046875 697.332031 438.53125 701.347656 437.964844 C 705.632812 437.367188 709.917969 436.632812 714.230469 436.253906 C 718.757812 435.875 723.207031 435.25 727.683594 434.492188 C 732.050781 433.785156 736.441406 433.269531 740.835938 432.726562 C 744.527344 432.292969 748.242188 431.941406 751.929688 431.535156 C 752.203125 431.507812 752.472656 431.210938 752.691406 430.992188 C 752.71875 430.9375 752.472656 430.53125 752.28125 430.421875 C 749.328125 428.742188 746.316406 427.113281 743.386719 425.378906 C 742.273438 424.726562 741.164062 424.589844 739.941406 424.617188 C 731.722656 424.835938 723.503906 424.972656 715.3125 425.214844 C 711.542969 425.324219 707.746094 425.59375 703.976562 425.785156 C 703.789062 425.785156 703.597656 425.757812 703.40625 425.785156 C 700.964844 426.164062 698.523438 426.597656 696.085938 426.925781 C 693.96875 427.195312 691.71875 427.003906 689.710938 427.628906 C 688.191406 428.089844 686.753906 427.875 685.316406 428.144531 C 682.738281 428.660156 680.21875 429.339844 677.640625 429.828125 C 675.007812 430.316406 672.324219 430.449219 669.746094 431.046875 C 665.273438 432.078125 660.878906 433.40625 656.429688 434.464844 C 650.21875 435.929688 644.0625 437.582031 638.015625 439.589844 C 634.027344 440.917969 630.148438 442.492188 626.132812 443.714844 C 620.273438 445.449219 614.824219 448.105469 609.371094 450.738281 C 605.195312 452.773438 601.207031 455.269531 597.195312 457.65625 C 591.007812 461.316406 585.207031 465.628906 579.996094 470.539062 C 575.089844 475.148438 570.179688 479.757812 566.164062 485.292969 C 563.804688 488.546875 561.933594 492.074219 560.765625 495.789062 C 559.410156 500.183594 558.378906 504.765625 558.894531 509.488281 C 558.976562 510.328125 559.058594 511.167969 559.140625 511.980469 C 559.628906 511.359375 560.0625 510.707031 560.578125 510.082031 C 563.96875 505.90625 567.359375 501.703125 570.804688 497.550781 C 574.113281 493.59375 577.367188 489.605469 580.839844 485.808594 C 585.695312 480.519531 590.957031 475.582031 596.894531 471.488281 C 599.90625 469.371094 602.972656 467.121094 606.847656 465.464844 M 249.421875 306.007812 C 247.386719 305.820312 245.21875 305.984375 243.320312 305.332031 C 241.582031 304.734375 239.957031 305.058594 238.300781 304.871094 C 236.648438 304.679688 234.992188 304.328125 233.339844 304.328125 C 228.105469 304.300781 222.867188 304.136719 217.660156 304.84375 C 215.246094 305.167969 212.804688 305.222656 210.390625 305.46875 C 209.117188 305.601562 207.84375 305.765625 206.59375 306.035156 C 204.125 306.578125 201.660156 307.175781 199.21875 307.773438 C 196.070312 308.53125 192.898438 309.265625 189.75 310.105469 C 185.601562 311.21875 181.453125 312.410156 177.300781 313.578125 C 172.636719 314.878906 167.972656 316.179688 163.308594 317.511719 C 159.863281 318.484375 156.445312 319.542969 152.972656 320.519531 C 147.601562 322.011719 142.207031 323.421875 136.835938 324.886719 C 131.464844 326.324219 126.066406 327.816406 120.695312 329.226562 C 115.894531 330.476562 111.066406 331.558594 106.292969 332.914062 C 100.871094 334.460938 95.527344 336.199219 90.15625 337.933594 C 84.542969 339.75 78.980469 341.675781 73.636719 344.117188 C 69.164062 346.179688 65.148438 348.917969 61.160156 351.738281 C 56.550781 354.992188 55.355469 361.503906 57.527344 366.167969 C 58.015625 367.226562 58.207031 366.847656 58.882812 366.441406 C 63.65625 363.539062 68.402344 360.582031 73.257812 357.867188 C 76.59375 355.996094 80.121094 354.453125 83.566406 352.714844 C 89.070312 349.949219 94.550781 347.101562 100.054688 344.335938 C 101.820312 343.464844 103.609375 342.679688 105.453125 341.976562 C 109.875 340.320312 114.324219 338.71875 118.796875 337.175781 C 124.792969 335.085938 130.730469 332.863281 136.78125 331.015625 C 142.964844 329.117188 149.257812 327.574219 155.496094 325.917969 C 160.378906 324.644531 165.285156 323.503906 170.195312 322.285156 C 173.070312 321.550781 175.917969 320.710938 178.792969 320.003906 C 182.128906 319.191406 185.464844 318.378906 188.828125 317.671875 C 192.03125 316.996094 195.285156 316.535156 198.511719 315.882812 C 202.960938 314.988281 207.355469 313.847656 211.804688 313.0625 C 216.0625 312.300781 220.375 311.785156 224.6875 311.296875 C 228.753906 310.835938 232.851562 310.675781 236.945312 310.1875 C 241.257812 309.671875 245.652344 309.671875 250.019531 309.5625 C 253.679688 309.480469 257.34375 309.535156 261.003906 309.535156 C 261.273438 309.535156 261.519531 309.398438 261.789062 309.347656 C 261.519531 309.210938 261.246094 309.046875 260.976562 308.9375 C 260.488281 308.75 259.972656 308.53125 259.457031 308.398438 C 256.3125 307.554688 253.164062 306.769531 249.421875 306.007812 M 759.363281 426.410156 C 757.597656 426.027344 755.835938 425.621094 754.046875 425.269531 C 753.828125 425.242188 753.53125 425.59375 753.285156 425.785156 C 753.421875 425.976562 753.558594 426.355469 753.71875 426.355469 C 755.511719 426.625 756.8125 427.738281 758.304688 428.605469 C 759.335938 429.203125 760.800781 429.175781 762.074219 429.203125 C 762.425781 429.203125 762.78125 428.46875 763.132812 428.089844 C 762.808594 427.875 762.480469 427.601562 762.128906 427.414062 C 761.394531 427.058594 760.664062 426.734375 759.363281 426.410156 M 276.058594 563.570312 C 277.765625 563.460938 277.550781 562.1875 277.441406 561.101562 C 277.414062 560.910156 276.328125 560.53125 276.085938 560.722656 C 275.136719 561.453125 274.023438 562.269531 273.589844 563.296875 C 273.398438 563.734375 274.726562 564.601562 276.058594 563.570312 M 799.855469 455.917969 C 799.667969 455.917969 799.476562 455.890625 799.3125 455.917969 C 799.015625 456 798.746094 456.136719 798.445312 456.242188 C 798.691406 456.324219 798.933594 456.488281 799.152344 456.460938 C 799.503906 456.460938 799.828125 456.296875 799.855469 455.917969 Z M 799.855469 455.917969 " fill-opacity="1" fill-rule="nonzero"/></g></svg>