<svg xmlns="http://www.w3.org/2000/svg" width="500" height="403" viewBox="0 0 500 403" fill="none">
<path d="M747.794 234.578C622.075 263.482 404.11 244.352 381.752 256.941C353.805 272.677 342.359 289.127 324.55 299.967C313.943 306.423 296.545 308.167 285.768 316.157C274.992 324.147 260.258 338.307 252.089 341.46C243.921 344.613 195.367 356.102 182.286 370.065C172.598 380.406 165.076 401.45 155.484 401.085C147.097 400.766 124.935 394.637 147.516 346.239M147.516 346.239C150.759 339.288 153.645 330.462 160.391 322.56C179.507 300.167 220.8 295.243 216.202 270.649C213.711 257.322 205.873 255.622 205.758 240.551C196.952 246.797 182.657 238.916 178.283 246.174C168.489 262.427 156.286 269.52 152.342 288.656C149.686 301.544 155.189 325.249 147.516 346.239ZM134.917 373.2C93.2739 385.038 107.908 353.123 113.99 336.642C119.892 320.649 102.611 290.229 103.616 277.539C104.74 263.336 111.336 245.809 121.474 229.628M178.799 160.295C169.395 179.853 144.722 200.563 121.474 229.628M121.474 229.628C72.9685 256.174 85.0109 265.313 61.5869 288.637C31.1795 318.913 8.8642 286.487 15.3141 281.249C41.1221 260.289 56.5107 219.463 68.1372 207.349C69.4615 205.97 90.0824 187.603 92.8837 185.579M178.737 128.037C137.455 139.413 49.7427 161.103 28.5296 154.581C-1.05705 145.485 -8.96624 180.172 21.942 186.542C32.2601 188.669 84.3725 190.632 92.8837 185.579M92.8837 185.579C109.758 173.39 149.059 148.254 191.528 119.388C233.996 90.5229 299.04 144.943 427.351 119.09C468.5 110.799 621.887 36.8359 693.689 2.01424M90.3326 149.169C85.0894 148.552 55.4911 134.745 47.5711 127.336C39.4671 119.754 32.17 87.4111 80.4738 111.009C100.966 121.02 135.809 121.351 183.413 124.885M183.91 151.138C203.244 109.443 227.344 133.219 280.683 132.39" stroke="#235f83" stroke-width="3"/>
</svg>