<svg xmlns="http://www.w3.org/2000/svg" width="368" height="571" viewBox="0 0 368 571" fill="none">
<path d="M400.032 569.848C314.085 473.652 302.342 479.364 280.532 465.848C253.269 448.954 210.113 442.222 192.029 431.848C181.258 425.669 155.583 408.374 143.387 402.786C131.191 397.199 111.681 391.12 104.98 385.484C98.2785 379.849 68.5695 376.075 50.0285 371.348C36.298 367.848 38.0285 353.848 6.1595 329.607C-0.520776 324.526 -4.75887 294.405 48.5285 290.848M48.5285 290.848C56.1815 290.337 73.8533 311.249 84.0285 313.348C112.864 319.296 122.701 334.236 142.028 318.348C152.502 309.738 159.381 275.717 172.529 268.348C162.81 263.646 154.528 249.848 142.028 241.348C126.337 230.677 116.528 237.348 98.5285 231.848C85.9573 235.736 70.6164 287.448 48.5285 290.848ZM20.0285 296.038C-3.11258 294.13 21.1853 261.899 31.0285 247.348C42.5285 230.348 62.4263 179.588 74.0285 174.348C87.0128 168.484 85.9157 169.27 104.98 170.348M180.373 180.848C143.387 178.271 141.653 176.698 104.98 170.348M104.98 170.348C78.529 137.848 46.0287 117.348 25.5289 90.8481C-0.726552 56.9081 18.0286 23.348 27.5286 27.348C51.5835 37.4763 52.9812 65.929 66.5287 75.8478C94.5287 96.3478 142.013 119.628 151.2 130.809M225.529 174.348C203.529 125.348 143.019 48.8512 137.529 27.348C125.529 -19.652 89.2043 6.19901 98.5285 36.348C101.641 46.4127 142.669 125.789 151.2 130.809M151.2 130.809C170.016 139.713 186.765 157.564 232.532 180.848C278.299 204.132 298.048 328.66 350.531 356.848C387.511 376.709 413.532 376.484 484.032 410.848M217.568 158.348C215.58 153.457 227.857 103.359 230.529 92.848C236.121 70.848 276.029 57.848 255.529 126.848C249.033 148.711 257.529 149.848 257.529 200.848M205.529 183.348C251.379 180.179 242.172 212.758 268.62 259.085" stroke="#235f83" stroke-width="3"/>
</svg>