<svg aria-hidden="true" style="position:absolute;width:0;height:0;overflow:hidden" xmlns="http://www.w3.org/2000/svg"><defs><symbol id="icon-telegram" viewBox="0 0 49 48" fill="none" ><path d="M39.4319 9.68885C39.0177 9.34433 38.5179 9.11856 37.9856 9.03557C37.4534 8.95257 36.9085 9.01547 36.4092 9.21755L10.3407 19.7418C9.78338 19.9712 9.30896 20.3646 8.98041 20.8699C8.65185 21.3752 8.48469 21.9684 8.5011 22.5709C8.51751 23.1733 8.71672 23.7566 9.07229 24.2432C9.42787 24.7299 9.923 25.0969 10.492 25.2956L15.765 27.1299L18.7034 36.8497C18.7437 36.9794 18.8019 37.1028 18.8765 37.2163C18.8881 37.2338 18.9041 37.2454 18.9158 37.2643C19.0015 37.3836 19.105 37.4891 19.2227 37.577C19.2555 37.6028 19.2895 37.627 19.3245 37.6498C19.4623 37.7412 19.6149 37.8082 19.7755 37.8476L19.7944 37.8491L19.8031 37.8534C19.9003 37.8729 19.9992 37.8827 20.0984 37.8825L20.1246 37.8782C20.2735 37.8757 20.4212 37.8502 20.5624 37.8025C20.5959 37.7909 20.6235 37.7734 20.6555 37.7589C20.7611 37.7156 20.8612 37.6599 20.9537 37.593C21.0274 37.5305 21.1011 37.4679 21.1748 37.4054L25.1052 33.0662L30.9674 37.6076C31.4834 38.0095 32.1185 38.228 32.7726 38.2287C33.4581 38.2279 34.1224 37.9914 34.6542 37.5589C35.1861 37.1264 35.553 36.5242 35.6935 35.8533L40.4399 12.5545C40.5473 12.0303 40.5102 11.4868 40.3327 10.9821C40.1551 10.4774 39.8438 10.0304 39.4319 9.68885ZM20.6744 27.5925C20.473 27.7935 20.3353 28.0496 20.2788 28.3285L19.8278 30.5163L18.6874 26.7444L24.6005 23.665L20.6744 27.5925ZM32.7508 35.3078L25.8224 29.9402C25.5325 29.7165 25.1689 29.6103 24.8042 29.6426C24.4394 29.675 24.1002 29.8435 23.8542 30.1148L22.5945 31.504L23.0396 29.3409L33.3428 19.0378C33.5873 18.7918 33.7358 18.4666 33.7617 18.1208C33.7875 17.775 33.689 17.4313 33.4838 17.1517C33.2787 16.8722 32.9804 16.6751 32.6427 16.596C32.3051 16.5169 31.9503 16.5611 31.6423 16.7205L16.856 24.4185L11.4375 22.4358L37.5903 11.9755L32.7508 35.3078Z" fill="#EFEFEF"/></symbol>

<symbol id="icon-instagram" viewBox="0 0 32 32">
<path fill="#EFEFEF" d="M16 2.881c4.275 0 4.781 0.019 6.462 0.094 1.563 0.069 2.406 0.331 2.969 0.55 0.744 0.288 1.281 0.638 1.837 1.194 0.563 0.563 0.906 1.094 1.2 1.838 0.219 0.563 0.481 1.412 0.55 2.969 0.075 1.688 0.094 2.194 0.094 6.463s-0.019 4.781-0.094 6.463c-0.069 1.563-0.331 2.406-0.55 2.969-0.288 0.744-0.637 1.281-1.194 1.837-0.563 0.563-1.094 0.906-1.837 1.2-0.563 0.219-1.413 0.481-2.969 0.55-1.688 0.075-2.194 0.094-6.463 0.094s-4.781-0.019-6.463-0.094c-1.563-0.069-2.406-0.331-2.969-0.55-0.744-0.288-1.281-0.637-1.838-1.194-0.563-0.563-0.906-1.094-1.2-1.837-0.219-0.563-0.481-1.413-0.55-2.969-0.075-1.688-0.094-2.194-0.094-6.463s0.019-4.781 0.094-6.463c0.069-1.563 0.331-2.406 0.55-2.969 0.288-0.744 0.638-1.281 1.194-1.838 0.563-0.563 1.094-0.906 1.838-1.2 0.563-0.219 1.412-0.481 2.969-0.55 1.681-0.075 2.188-0.094 6.463-0.094zM16 0c-4.344 0-4.887 0.019-6.594 0.094-1.7 0.075-2.869 0.35-3.881 0.744-1.056 0.412-1.95 0.956-2.837 1.85-0.894 0.888-1.438 1.781-1.85 2.831-0.394 1.019-0.669 2.181-0.744 3.881-0.075 1.713-0.094 2.256-0.094 6.6s0.019 4.887 0.094 6.594c0.075 1.7 0.35 2.869 0.744 3.881 0.413 1.056 0.956 1.95 1.85 2.837 0.887 0.887 1.781 1.438 2.831 1.844 1.019 0.394 2.181 0.669 3.881 0.744 1.706 0.075 2.25 0.094 6.594 0.094s4.888-0.019 6.594-0.094c1.7-0.075 2.869-0.35 3.881-0.744 1.050-0.406 1.944-0.956 2.831-1.844s1.438-1.781 1.844-2.831c0.394-1.019 0.669-2.181 0.744-3.881 0.075-1.706 0.094-2.25 0.094-6.594s-0.019-4.887-0.094-6.594c-0.075-1.7-0.35-2.869-0.744-3.881-0.394-1.063-0.938-1.956-1.831-2.844-0.887-0.887-1.781-1.438-2.831-1.844-1.019-0.394-2.181-0.669-3.881-0.744-1.712-0.081-2.256-0.1-6.6-0.1v0z"></path>
<path fill="#EFEFEF" d="M16 7.781c-4.537 0-8.219 3.681-8.219 8.219s3.681 8.219 8.219 8.219 8.219-3.681 8.219-8.219c0-4.537-3.681-8.219-8.219-8.219zM16 21.331c-2.944 0-5.331-2.387-5.331-5.331s2.387-5.331 5.331-5.331c2.944 0 5.331 2.387 5.331 5.331s-2.387 5.331-5.331 5.331z"></path>
<path fill="#EFEFEF" d="M26.462 7.456c0 1.060-0.859 1.919-1.919 1.919s-1.919-0.859-1.919-1.919c0-1.060 0.859-1.919 1.919-1.919s1.919 0.859 1.919 1.919z"></path>
</symbol>

</defs></svg>
